<?xml version="1.0" encoding="UTF-8"?>
<svg width="251px" height="82px" viewBox="0 0 251 82" version="1.1" xmlns="http://www.w3.org/2000/svg" xmlns:xlink="http://www.w3.org/1999/xlink">
    <!-- Generator: sketchtool 54.1 (76490) - https://sketchapp.com -->
    <title>924CCE40-5C98-420B-82A1-89EA7FB95AD4</title>
    <desc>Created with sketchtool.</desc>
    <g id="Landing-page---Visite-guidée" stroke="none" stroke-width="1" fill="none" fill-rule="evenodd">
        <g id="Landing-Page---Desktop" transform="translate(-189.000000, -3412.000000)" fill-rule="nonzero">
            <g id="Group-11" transform="translate(190.000000, 3330.000000)">
                <g id="Alexis-Clemence_typo" transform="translate(0.000000, 60.000000)">
                    <path d="M149.672,36.224 C149.672,40.9600237 148.024016,44.6559867 144.728,47.312 C141.431984,49.9680133 136.584032,51.9679933 130.184,53.312 L128.456,53.888 C131.336014,55.1680064 133.543992,57.2159859 135.08,60.032 C136.616008,62.8480141 137.384,66.1119814 137.384,69.824 C137.384,74.3040224 136.008014,78.3199822 133.256,81.872 C130.503986,85.4240178 126.616025,88.2239898 121.592,90.272 C116.567975,92.3200102 110.792033,93.344 104.264,93.344 C97.2239648,93.344 91.0320267,92.3840096 85.688,90.464 C80.3439733,88.5439904 76.2160146,85.7760181 73.304,82.16 C70.3919854,78.5439819 68.936,74.3040243 68.936,69.44 C68.936,65.0879782 70.0879885,61.4240149 72.392,58.448 C74.6960115,55.4719851 77.3039854,53.2160077 80.216,51.68 C83.1280146,50.1439923 85.8639872,49.0560032 88.424,48.416 C81.1919638,45.5359856 77.576,41.5040259 77.576,36.32 C77.576,32.4159805 79.4639811,29.360011 83.24,27.152 C87.0160189,24.943989 91.4959741,23.84 96.68,23.84 C99.0480118,23.84 100.999992,23.9999984 102.536,24.32 C104.072008,24.6400016 105.447994,25.1519965 106.664,25.856 C108.392009,26.6880042 109.799995,27.7439936 110.888,29.024 C111.976005,30.3040064 112.52,31.839991 112.52,33.632 C112.52,35.4880093 111.800007,37.0079941 110.36,38.192 C108.919993,39.3760059 107.17601,39.968 105.128,39.968 C103.07999,39.968 101.400007,39.4560051 100.088,38.432 C98.7759934,37.4079949 98.12,35.9360096 98.12,34.016 C98.12,32.415992 98.6959942,30.9600066 99.848,29.648 C101.000006,28.3359934 102.471991,27.5200016 104.264,27.2 C103.687997,26.6879974 102.824006,26.2720016 101.672,25.952 C100.519994,25.6319984 99.2720067,25.472 97.928,25.472 C94.4079824,25.472 91.5280112,26.5599891 89.288,28.736 C87.0479888,30.9120109 85.928,34.0159798 85.928,38.048 C85.928,41.7600186 87.1759875,45.0239859 89.672,47.84 C92.0400118,47.3279974 93.8319939,47.072 95.048,47.072 C96.2000058,47.072 97.079997,47.3119976 97.688,47.792 C98.296003,48.2720024 98.6,48.8959962 98.6,49.664 C98.6,50.3040032 98.3440026,50.7999982 97.832,51.152 C97.3199974,51.5040018 96.6800038,51.68 95.912,51.68 C94.9519952,51.68 94.0240045,51.4560022 93.128,51.008 C92.2319955,50.5599978 91.1120067,49.9520038 89.768,49.184 C86.5039837,50.8480083 83.9920088,52.9119877 82.232,55.376 C80.4719912,57.8400123 79.592,60.9599811 79.592,64.736 C79.592,70.944031 82.0719752,75.5999845 87.032,78.704 C91.9920248,81.8080155 98.8559562,83.36 107.624,83.36 C112.040022,83.36 116.27998,82.7040066 120.344,81.392 C124.40802,80.0799934 127.703987,78.1600126 130.232,75.632 C132.760013,73.1039874 134.024,70.1120173 134.024,66.656 C134.024,60.7679706 131.592024,56.7040112 126.728,54.464 L120.584,56.192 L115.208,57.728 C109.831973,58.9440061 105.896012,60.2239933 103.4,61.568 C100.903988,62.9120067 99.656,64.7359885 99.656,67.04 C99.656,69.3440115 100.727989,71.2159928 102.872,72.656 C105.016011,74.0960072 107.399987,74.816 110.024,74.816 C110.728004,74.816 111.479996,74.720001 112.28,74.528 C113.080004,74.335999 113.607999,74.1120013 113.864,73.856 C112.327992,73.3439974 111.144004,72.5440054 110.312,71.456 C109.479996,70.3679946 109.064,69.0560077 109.064,67.52 C109.064,65.5359901 109.783993,63.9840056 111.224,62.864 C112.664007,61.7439944 114.503989,61.184 116.744,61.184 C119.048012,61.184 120.855993,61.7759941 122.168,62.96 C123.480007,64.1440059 124.136,65.7279901 124.136,67.712 C124.136,70.5920144 122.856013,72.7679926 120.296,74.24 C117.735987,75.7120074 114.47202,76.448 110.504,76.448 C106.40798,76.448 103.000014,75.3920106 100.28,73.28 C97.5599864,71.1679894 96.2,68.1280198 96.2,64.16 C96.2,59.359976 98.0239818,55.5520141 101.672,52.736 C105.320018,49.9199859 110.663965,47.8400067 117.704,46.496 L121.832,45.44 C125.992021,44.4799952 129.383987,43.5520045 132.008,42.656 C136.936025,41.4399939 140.583988,40.1120072 142.952,38.672 C145.320012,37.2319928 146.504,35.3920112 146.504,33.152 C146.504,30.6559875 145.400011,28.5760083 143.192,26.912 C140.983989,25.2479917 138.472014,24.416 135.656,24.416 C134.439994,24.416 133.512003,24.5759984 132.872,24.896 C134.344007,25.4720029 135.495996,26.3199944 136.328,27.44 C137.160004,28.5600056 137.576,29.7279939 137.576,30.944 C137.576,32.8640096 136.856007,34.3679946 135.416,35.456 C133.975993,36.5440054 132.136011,37.088 129.896,37.088 C127.655989,37.088 125.848007,36.5280056 124.472,35.408 C123.095993,34.2879944 122.408,32.7360099 122.408,30.752 C122.408,28.2559875 123.495989,26.2880072 125.672,24.848 C127.848011,23.4079928 130.759982,22.688 134.408,22.688 C139.016023,22.688 142.711986,23.887988 145.496,26.288 C148.280014,28.688012 149.672,31.9999789 149.672,36.224 Z" id="&amp;" fill="#E28A8A" opacity="0.5"></path>
                    <path d="M18.144,47.312 C18.6560026,48.6346733 19.3919952,49.3173331 20.352,49.36 L20.352,50 C19.4986624,49.9359997 18.3573405,49.904 16.928,49.904 C15.0933242,49.904 13.7280045,49.9359997 12.832,50 L12.832,49.36 C13.6426707,49.3173331 14.2239982,49.2160008 14.576,49.056 C14.9280018,48.8959992 15.104,48.6026688 15.104,48.176 C15.104,47.8133315 14.9760013,47.3120032 14.72,46.672 L12.768,41.424 L5.024,41.424 L3.712,44.816 C3.2853312,45.9680058 3.072,46.8426637 3.072,47.44 C3.072,48.1013366 3.30133104,48.5813318 3.76,48.88 C4.21866896,49.1786682 4.91732864,49.3386666 5.856,49.36 L5.856,50 C4.63999392,49.9359997 3.41333952,49.904 2.176,49.904 C1.2159952,49.904 0.4160032,49.9359997 -0.224,50 L-0.224,49.36 C0.842672,49.1039987 1.68533024,48.176008 2.304,46.576 L9.824,27.184 L10.336,27.184 L18.144,47.312 Z M12.512,40.784 L8.928,31.216 L5.28,40.784 L12.512,40.784 Z M26.176,47.024 C26.176,47.898671 26.3573315,48.5013317 26.72,48.832 C27.0826685,49.1626683 27.7119955,49.328 28.608,49.328 L28.608,50 C26.6453235,49.9146662 25.3546698,49.872 24.736,49.872 C24.1173302,49.872 22.8266765,49.9146662 20.864,50 L20.864,49.328 C21.7600045,49.328 22.3893315,49.1626683 22.752,48.832 C23.1146685,48.5013317 23.296,47.898671 23.296,47.024 L23.296,28.752 C23.296,27.7706618 23.1146685,27.0560022 22.752,26.608 C22.3893315,26.1599978 21.7600045,25.936 20.864,25.936 L20.864,25.264 C21.5253366,25.3280003 22.1866634,25.36 22.848,25.36 C24.1920067,25.36 25.301329,25.2106682 26.176,24.912 L26.176,47.024 Z M44.128,46.16 C43.7439981,47.3333392 43.0240053,48.3413291 41.968,49.184 C40.9119947,50.0266709 39.6373408,50.448 38.144,50.448 C36.6293258,50.448 35.3173389,50.1013368 34.208,49.408 C33.0986611,48.7146632 32.2506696,47.7440062 31.664,46.496 C31.0773304,45.2479938 30.784,43.8026749 30.784,42.16 C30.784,40.3039907 31.0826637,38.6933402 31.68,37.328 C32.2773363,35.9626598 33.1199946,34.9120037 34.208,34.176 C35.2960054,33.4399963 36.5653261,33.072 38.016,33.072 C39.9360096,33.072 41.4133282,33.6533275 42.448,34.816 C43.4826718,35.9786725 44,37.7439882 44,40.112 L33.984,40.112 C33.9199997,40.7093363 33.888,41.3919962 33.888,42.16 C33.888,43.568007 34.117331,44.7946614 34.576,45.84 C35.034669,46.8853386 35.6426629,47.6906638 36.4,48.256 C37.1573371,48.8213362 37.9519958,49.104 38.784,49.104 C39.8080051,49.104 40.7146627,48.8586691 41.504,48.368 C42.2933373,47.8773309 42.954664,47.0560058 43.488,45.904 L44.128,46.16 Z M37.888,33.68 C36.8853283,33.68 36.021337,34.1706618 35.296,35.152 C34.570663,36.1333382 34.1226675,37.5839904 33.952,39.504 L40.928,39.504 C40.9706669,37.8399917 40.7306693,36.4533389 40.208,35.344 C39.6853307,34.2346611 38.9120051,33.68 37.888,33.68 Z M59.712,47.728 C60.0960019,48.261336 60.421332,48.6399989 60.688,48.864 C60.954668,49.0880011 61.2906646,49.2426662 61.696,49.328 L61.696,50 C60.5866611,49.9146662 59.8293354,49.872 59.424,49.872 C58.698663,49.872 57.440009,49.9146662 55.648,50 L55.648,49.328 C55.989335,49.328 56.2826654,49.2640006 56.528,49.136 C56.7733346,49.0079994 56.896,48.8373344 56.896,48.624 C56.896,48.4746659 56.8533338,48.3466672 56.768,48.24 L53.12,42.928 L50.784,45.968 C50.1866637,46.7573373 49.888,47.3973309 49.888,47.888 C49.888,48.3360022 50.0959979,48.6826654 50.512,48.928 C50.9280021,49.1733346 51.5093296,49.3173331 52.256,49.36 L52.256,50 C51.1466611,49.9359997 49.9306733,49.904 48.608,49.904 C47.6693286,49.904 46.8586701,49.9359997 46.176,50 L46.176,49.36 C46.6026688,49.3173331 47.0346645,49.125335 47.472,48.784 C47.9093355,48.442665 48.4159971,47.8880038 48.992,47.12 L52.672,42.288 L48.224,35.792 C47.7973312,35.1733302 47.4560013,34.7626677 47.2,34.56 C46.9439987,34.3573323 46.6240019,34.2346669 46.24,34.192 L46.24,33.52 C47.3493389,33.6053338 48.1066646,33.648 48.512,33.648 C49.237337,33.648 50.495991,33.6053338 52.288,33.52 L52.288,34.192 C51.946665,34.192 51.6533346,34.2559994 51.408,34.384 C51.1626654,34.5120006 51.04,34.6826656 51.04,34.896 C51.04,35.0453341 51.0826662,35.1733328 51.168,35.28 L54.592,40.272 L56.8,37.168 C57.4400032,36.2506621 57.76,35.5786688 57.76,35.152 C57.76,34.8533318 57.6160014,34.6240008 57.328,34.464 C57.0399986,34.3039992 56.5760032,34.2026669 55.936,34.16 L55.936,33.52 C57.0453389,33.5840003 57.9413299,33.616 58.624,33.616 C59.5626714,33.616 60.3733299,33.5840003 61.056,33.52 L61.056,34.16 C60.181329,34.2666672 59.2426717,35.0133264 58.24,36.4 L55.008,40.88 L59.712,47.728 Z M66.688,25.52 C67.2426694,25.52 67.7226646,25.7226646 68.128,26.128 C68.5333354,26.5333354 68.736,27.0133306 68.736,27.568 C68.736,28.1226694 68.5333354,28.6026646 68.128,29.008 C67.7226646,29.4133354 67.2426694,29.616 66.688,29.616 C66.1333306,29.616 65.6533354,29.4133354 65.248,29.008 C64.8426646,28.6026646 64.64,28.1226694 64.64,27.568 C64.64,27.0133306 64.8426646,26.5333354 65.248,26.128 C65.6533354,25.7226646 66.1333306,25.52 66.688,25.52 Z M68.352,47.024 C68.352,47.898671 68.5333315,48.5013317 68.896,48.832 C69.2586685,49.1626683 69.8879955,49.328 70.784,49.328 L70.784,50 C68.8213235,49.9146662 67.5306698,49.872 66.912,49.872 C66.2933302,49.872 65.0026765,49.9146662 63.04,50 L63.04,49.328 C63.9360045,49.328 64.5653315,49.1626683 64.928,48.832 C65.2906685,48.5013317 65.472,47.898671 65.472,47.024 L65.472,37.008 C65.472,36.0266618 65.2906685,35.3120022 64.928,34.864 C64.5653315,34.4159978 63.9360045,34.192 63.04,34.192 L63.04,33.52 C63.7226701,33.5840003 64.3839968,33.616 65.024,33.616 C66.3680067,33.616 67.477329,33.4666682 68.352,33.168 L68.352,47.024 Z M78.144,33.072 C78.9120038,33.072 79.5946637,33.1893322 80.192,33.424 C80.7893363,33.6586678 81.2693315,33.9359984 81.632,34.256 C81.8666678,34.4266675 82.0586659,34.512 82.208,34.512 C82.5920019,34.512 82.8266662,34.0426714 82.912,33.104 L83.648,33.104 C83.5626662,34.1493386 83.52,35.9626538 83.52,38.544 L82.784,38.544 C82.5493322,37.135993 82.0960034,35.9733379 81.424,35.056 C80.7519966,34.1386621 79.7546733,33.68 78.432,33.68 C77.6639962,33.68 77.0346691,33.8986645 76.544,34.336 C76.0533309,34.7733355 75.808,35.3759962 75.808,36.144 C75.808,36.8906704 76.0639974,37.5146642 76.576,38.016 C77.0880026,38.5173358 77.9093277,39.1199965 79.04,39.824 C79.232001,39.9306672 79.5199981,40.1119987 79.904,40.368 C80.8853382,41.0080032 81.6746637,41.5733309 82.272,42.064 C82.8693363,42.5546691 83.3546648,43.1199968 83.728,43.76 C84.1013352,44.4000032 84.288,45.1359958 84.288,45.968 C84.288,47.376007 83.7600053,48.4746627 82.704,49.264 C81.6479947,50.0533373 80.3520077,50.448 78.816,50.448 C77.8559952,50.448 77.013337,50.2986682 76.288,50 C75.8186643,49.7653322 75.3813354,49.477335 74.976,49.136 C74.8906662,49.0506662 74.7946672,49.008 74.688,49.008 C74.5386659,49.008 74.4053339,49.1146656 74.288,49.328 C74.1706661,49.5413344 74.0800003,49.8399981 74.016,50.224 L73.28,50.224 C73.3653338,49.0079939 73.408,46.8746819 73.408,43.824 L74.144,43.824 C74.3786678,45.8293434 74.8053302,47.327995 75.424,48.32 C76.0426698,49.312005 77.0986592,49.808 78.592,49.808 C79.3386704,49.808 79.9999971,49.5626691 80.576,49.072 C81.1520029,48.5813309 81.44,47.8133386 81.44,46.768 C81.44,45.9359958 81.1573362,45.2320029 80.592,44.656 C80.0266638,44.0799971 79.1040064,43.3866707 77.824,42.576 C76.7786614,41.9146634 75.9733362,41.3706688 75.408,40.944 C74.8426638,40.5173312 74.3680019,39.9946698 73.984,39.376 C73.5999981,38.7573302 73.408,38.0320042 73.408,37.2 C73.408,35.8559933 73.8559955,34.8320035 74.752,34.128 C75.6480045,33.4239965 76.7786598,33.072 78.144,33.072 Z" id="Alexis" fill="#21304C"></path>
                    <path d="M119.872,79.896 C121.152006,79.896 122.239996,80.0773315 123.136,80.44 C124.032004,80.8026685 124.906662,81.3146634 125.76,81.976 C125.994668,82.168001 126.197332,82.264 126.368,82.264 C126.794669,82.264 127.071999,81.6240064 127.2,80.344 L127.936,80.344 C127.850666,81.7306736 127.808,84.1839824 127.808,87.704 L127.072,87.704 C126.837332,86.3173264 126.624001,85.320003 126.432,84.712 C126.239999,84.103997 125.920002,83.5226694 125.472,82.968 C124.831997,82.1359958 124.016005,81.5120021 123.024,81.096 C122.031995,80.6799979 120.960006,80.472 119.808,80.472 C118.421326,80.472 117.210672,80.9306621 116.176,81.848 C115.141328,82.7653379 114.336003,84.0719915 113.76,85.768 C113.183997,87.4640085 112.896,89.4533219 112.896,91.736 C112.896,94.061345 113.20533,96.0559917 113.824,97.72 C114.44267,99.3840083 115.301328,100.647996 116.4,101.512 C117.498672,102.376004 118.741326,102.808 120.128,102.808 C121.194672,102.808 122.229328,102.605335 123.232,102.2 C124.234672,101.794665 125.023997,101.186671 125.6,100.376 C126.026669,99.7786637 126.335999,99.1386701 126.528,98.456 C126.720001,97.7733299 126.901332,96.728007 127.072,95.32 L127.808,95.32 C127.808,98.9893517 127.850666,101.549326 127.936,103 L127.2,103 C127.136,102.31733 127.045334,101.832001 126.928,101.544 C126.810666,101.255999 126.645334,101.112 126.432,101.112 C126.261332,101.112 126.037335,101.197332 125.76,101.368 C124.799995,102.05067 123.882671,102.567998 123.008,102.92 C122.133329,103.272002 121.07734,103.448 119.84,103.448 C117.813323,103.448 116.037341,102.989338 114.512,102.072 C112.986659,101.154662 111.802671,99.8266754 110.96,98.088 C110.117329,96.3493246 109.696,94.2746787 109.696,91.864 C109.696,89.5173216 110.127996,87.4373424 110.992,85.624 C111.856004,83.8106576 113.061326,82.4026717 114.608,81.4 C116.154674,80.3973283 117.909324,79.896 119.872,79.896 Z M136.032,100.024 C136.032,100.898671 136.213332,101.501332 136.576,101.832 C136.938668,102.162668 137.567996,102.328 138.464,102.328 L138.464,103 C136.501324,102.914666 135.21067,102.872 134.592,102.872 C133.97333,102.872 132.682676,102.914666 130.72,103 L130.72,102.328 C131.616004,102.328 132.245332,102.162668 132.608,101.832 C132.970668,101.501332 133.152,100.898671 133.152,100.024 L133.152,81.752 C133.152,80.7706618 132.970668,80.0560022 132.608,79.608 C132.245332,79.1599978 131.616004,78.936 130.72,78.936 L130.72,78.264 C131.381337,78.3280003 132.042663,78.36 132.704,78.36 C134.048007,78.36 135.157329,78.2106682 136.032,77.912 L136.032,100.024 Z M153.984,99.16 C153.599998,100.333339 152.880005,101.341329 151.824,102.184 C150.767995,103.026671 149.493341,103.448 148,103.448 C146.485326,103.448 145.173339,103.101337 144.064,102.408 C142.954661,101.714663 142.10667,100.744006 141.52,99.496 C140.93333,98.2479938 140.64,96.8026749 140.64,95.16 C140.64,93.3039907 140.938664,91.6933402 141.536,90.328 C142.133336,88.9626598 142.975995,87.9120037 144.064,87.176 C145.152005,86.4399963 146.421326,86.072 147.872,86.072 C149.79201,86.072 151.269328,86.6533275 152.304,87.816 C153.338672,88.9786725 153.856,90.7439882 153.856,93.112 L143.84,93.112 C143.776,93.7093363 143.744,94.3919962 143.744,95.16 C143.744,96.568007 143.973331,97.7946614 144.432,98.84 C144.890669,99.8853386 145.498663,100.690664 146.256,101.256 C147.013337,101.821336 147.807996,102.104 148.64,102.104 C149.664005,102.104 150.570663,101.858669 151.36,101.368 C152.149337,100.877331 152.810664,100.056006 153.344,98.904 L153.984,99.16 Z M147.744,86.68 C146.741328,86.68 145.877337,87.1706618 145.152,88.152 C144.426663,89.1333382 143.978668,90.5839904 143.808,92.504 L150.784,92.504 C150.826667,90.8399917 150.586669,89.4533389 150.064,88.344 C149.541331,87.2346611 148.768005,86.68 147.744,86.68 Z M151.264,76.984 C151.562668,77.2400013 151.712,77.538665 151.712,77.88 C151.712,78.2000016 151.562668,78.5626646 151.264,78.968 C150.837331,79.501336 150.229337,80.0879968 149.44,80.728 C149.290666,80.8560006 148.901336,81.2133304 148.272,81.8 C147.642664,82.3866696 146.95467,83.0639962 146.208,83.832 L145.856,83.544 C146.645337,82.285327 147.38133,80.9946733 148.064,79.672 C148.554669,78.6906618 148.981332,77.9546691 149.344,77.464 C149.685335,76.9946643 150.090664,76.76 150.56,76.76 C150.858668,76.76 151.093332,76.8346659 151.264,76.984 Z M180.864,100.024 C180.864,100.898671 181.045332,101.501332 181.408,101.832 C181.770668,102.162668 182.399996,102.328 183.296,102.328 L183.296,103 C181.333324,102.914666 180.053336,102.872 179.456,102.872 C178.858664,102.872 177.664009,102.914666 175.872,103 L175.872,102.328 C176.661337,102.328 177.210665,102.162668 177.52,101.832 C177.829335,101.501332 177.984,100.898671 177.984,100.024 L177.984,90.776 C177.984,89.9653293 177.936,89.3093358 177.84,88.808 C177.744,88.3066642 177.520002,87.8960016 177.168,87.576 C176.815998,87.2559984 176.277337,87.096 175.552,87.096 C174.741329,87.096 174.005337,87.3519974 173.344,87.864 C172.682663,88.3760026 172.165335,89.0746622 171.792,89.96 C171.418665,90.8453378 171.232,91.821328 171.232,92.888 L171.232,100.024 C171.232,100.898671 171.413332,101.501332 171.776,101.832 C172.138668,102.162668 172.767996,102.328 173.664,102.328 L173.664,103 C171.701324,102.914666 170.421336,102.872 169.824,102.872 C169.226664,102.872 168.032009,102.914666 166.24,103 L166.24,102.328 C167.029337,102.328 167.578665,102.162668 167.888,101.832 C168.197335,101.501332 168.352,100.898671 168.352,100.024 L168.352,90.776 C168.352,89.9653293 168.304,89.3093358 168.208,88.808 C168.112,88.3066642 167.888002,87.8960016 167.536,87.576 C167.183998,87.2559984 166.645337,87.096 165.92,87.096 C165.109329,87.096 164.373337,87.3519974 163.712,87.864 C163.050663,88.3760026 162.533335,89.0799955 162.16,89.976 C161.786665,90.8720045 161.6,91.853328 161.6,92.92 L161.6,100.024 C161.6,100.898671 161.754665,101.501332 162.064,101.832 C162.373335,102.162668 162.922663,102.328 163.712,102.328 L163.712,103 C161.919991,102.914666 160.725336,102.872 160.128,102.872 C159.530664,102.872 158.250676,102.914666 156.288,103 L156.288,102.328 C157.184004,102.328 157.813332,102.162668 158.176,101.832 C158.538668,101.501332 158.72,100.898671 158.72,100.024 L158.72,90.008 C158.72,89.0266618 158.538668,88.3120022 158.176,87.864 C157.813332,87.4159978 157.184004,87.192 156.288,87.192 L156.288,86.52 C156.97067,86.5840003 157.631997,86.616 158.272,86.616 C159.616007,86.616 160.725329,86.4666682 161.6,86.168 L161.6,89.944 C162.112003,88.6213267 162.837329,87.6453365 163.776,87.016 C164.714671,86.3866635 165.738661,86.072 166.848,86.072 C168.298674,86.072 169.407996,86.4773293 170.176,87.288 C170.709336,87.8426694 171.039999,88.6959942 171.168,89.848 C171.701336,88.5039933 172.437329,87.5386696 173.376,86.952 C174.314671,86.3653304 175.349328,86.072 176.48,86.072 C177.930674,86.072 179.039996,86.4773293 179.808,87.288 C180.192002,87.7146688 180.463999,88.2586634 180.624,88.92 C180.784001,89.5813366 180.864,90.4346614 180.864,91.48 L180.864,100.024 Z M198.592,99.16 C198.207998,100.333339 197.488005,101.341329 196.432,102.184 C195.375995,103.026671 194.101341,103.448 192.608,103.448 C191.093326,103.448 189.781339,103.101337 188.672,102.408 C187.562661,101.714663 186.71467,100.744006 186.128,99.496 C185.54133,98.2479938 185.248,96.8026749 185.248,95.16 C185.248,93.3039907 185.546664,91.6933402 186.144,90.328 C186.741336,88.9626598 187.583995,87.9120037 188.672,87.176 C189.760005,86.4399963 191.029326,86.072 192.48,86.072 C194.40001,86.072 195.877328,86.6533275 196.912,87.816 C197.946672,88.9786725 198.464,90.7439882 198.464,93.112 L188.448,93.112 C188.384,93.7093363 188.352,94.3919962 188.352,95.16 C188.352,96.568007 188.581331,97.7946614 189.04,98.84 C189.498669,99.8853386 190.106663,100.690664 190.864,101.256 C191.621337,101.821336 192.415996,102.104 193.248,102.104 C194.272005,102.104 195.178663,101.858669 195.968,101.368 C196.757337,100.877331 197.418664,100.056006 197.952,98.904 L198.592,99.16 Z M192.352,86.68 C191.349328,86.68 190.485337,87.1706618 189.76,88.152 C189.034663,89.1333382 188.586668,90.5839904 188.416,92.504 L195.392,92.504 C195.434667,90.8399917 195.194669,89.4533389 194.672,88.344 C194.149331,87.2346611 193.376005,86.68 192.352,86.68 Z M211.648,86.072 C213.141341,86.072 214.271996,86.4773293 215.04,87.288 C215.445335,87.7146688 215.733332,88.2479968 215.904,88.888 C216.074668,89.5280032 216.16,90.3919946 216.16,91.48 L216.16,100.024 C216.16,100.898671 216.341332,101.501332 216.704,101.832 C217.066668,102.162668 217.695996,102.328 218.592,102.328 L218.592,103 C216.629324,102.914666 215.349336,102.872 214.752,102.872 C214.154664,102.872 212.960009,102.914666 211.168,103 L211.168,102.328 C211.957337,102.328 212.506665,102.162668 212.816,101.832 C213.125335,101.501332 213.28,100.898671 213.28,100.024 L213.28,90.776 C213.28,89.5813274 213.109335,88.6693365 212.768,88.04 C212.426665,87.4106635 211.733339,87.096 210.688,87.096 C209.813329,87.096 209.03467,87.3519974 208.352,87.864 C207.66933,88.3760026 207.141335,89.0746622 206.768,89.96 C206.394665,90.8453378 206.208,91.8319946 206.208,92.92 L206.208,100.024 C206.208,100.898671 206.362665,101.501332 206.672,101.832 C206.981335,102.162668 207.530663,102.328 208.32,102.328 L208.32,103 C206.527991,102.914666 205.333336,102.872 204.736,102.872 C204.138664,102.872 202.858676,102.914666 200.896,103 L200.896,102.328 C201.792004,102.328 202.421332,102.162668 202.784,101.832 C203.146668,101.501332 203.328,100.898671 203.328,100.024 L203.328,90.008 C203.328,89.0266618 203.146668,88.3120022 202.784,87.864 C202.421332,87.4159978 201.792004,87.192 200.896,87.192 L200.896,86.52 C201.57867,86.5840003 202.239997,86.616 202.88,86.616 C204.224007,86.616 205.333329,86.4666682 206.208,86.168 L206.208,89.944 C206.741336,88.5786598 207.482662,87.592003 208.432,86.984 C209.381338,86.375997 210.453327,86.072 211.648,86.072 Z M228,86.072 C229.42934,86.072 230.666661,86.4133299 231.712,87.096 C232.714672,87.7573366 233.216,88.5786618 233.216,89.56 C233.216,90.1146694 233.056002,90.5519984 232.736,90.872 C232.415998,91.1920016 232.010669,91.352 231.52,91.352 C231.029331,91.352 230.613335,91.2080014 230.272,90.92 C229.930665,90.6319986 229.76,90.2426691 229.76,89.752 C229.76,89.3039978 229.887999,88.9253349 230.144,88.616 C230.400001,88.3066651 230.719998,88.0986672 231.104,87.992 C230.890666,87.6079981 230.512003,87.2880013 229.968,87.032 C229.423997,86.7759987 228.84267,86.648 228.224,86.648 C227.434663,86.648 226.69867,86.8986642 226.016,87.4 C225.33333,87.9013358 224.768002,88.7333275 224.32,89.896 C223.871998,91.0586725 223.648,92.5893238 223.648,94.488 C223.648,97.1333466 224.074662,99.0586606 224.928,100.264 C225.781338,101.469339 226.89066,102.072 228.256,102.072 C229.173338,102.072 230.042663,101.805336 230.864,101.272 C231.685337,100.738664 232.362664,99.9066723 232.896,98.776 L233.504,99 C233.141332,100.216006 232.464005,101.261329 231.472,102.136 C230.479995,103.010671 229.194675,103.448 227.616,103.448 C226.293327,103.448 225.093339,103.10667 224.016,102.424 C222.938661,101.74133 222.09067,100.754673 221.472,99.464 C220.85333,98.1733269 220.544,96.6746752 220.544,94.968 C220.544,93.2399914 220.858664,91.7040067 221.488,90.36 C222.117336,89.0159933 222.997328,87.9653371 224.128,87.208 C225.258672,86.4506629 226.549326,86.072 228,86.072 Z M249.44,99.16 C249.055998,100.333339 248.336005,101.341329 247.28,102.184 C246.223995,103.026671 244.949341,103.448 243.456,103.448 C241.941326,103.448 240.629339,103.101337 239.52,102.408 C238.410661,101.714663 237.56267,100.744006 236.976,99.496 C236.38933,98.2479938 236.096,96.8026749 236.096,95.16 C236.096,93.3039907 236.394664,91.6933402 236.992,90.328 C237.589336,88.9626598 238.431995,87.9120037 239.52,87.176 C240.608005,86.4399963 241.877326,86.072 243.328,86.072 C245.24801,86.072 246.725328,86.6533275 247.76,87.816 C248.794672,88.9786725 249.312,90.7439882 249.312,93.112 L239.296,93.112 C239.232,93.7093363 239.2,94.3919962 239.2,95.16 C239.2,96.568007 239.429331,97.7946614 239.888,98.84 C240.346669,99.8853386 240.954663,100.690664 241.712,101.256 C242.469337,101.821336 243.263996,102.104 244.096,102.104 C245.120005,102.104 246.026663,101.858669 246.816,101.368 C247.605337,100.877331 248.266664,100.056006 248.8,98.904 L249.44,99.16 Z M243.2,86.68 C242.197328,86.68 241.333337,87.1706618 240.608,88.152 C239.882663,89.1333382 239.434668,90.5839904 239.264,92.504 L246.24,92.504 C246.282667,90.8399917 246.042669,89.4533389 245.52,88.344 C244.997331,87.2346611 244.224005,86.68 243.2,86.68 Z" id="Clémence" fill="#21304C"></path>
                </g>
            </g>
        </g>
    </g>
</svg>