<?xml version="1.0" encoding="UTF-8"?>
<svg width="28px" height="36px" viewBox="0 0 28 36" version="1.1" xmlns="http://www.w3.org/2000/svg" xmlns:xlink="http://www.w3.org/1999/xlink">
    <!-- Generator: sketchtool 54.1 (76490) - https://sketchapp.com -->
    <title>CE8E3BDB-0E67-4E29-9A14-48D7AE105E70</title>
    <desc>Created with sketchtool.</desc>
    <defs>
        <polygon id="path-1" points="0 36.8732283 27.5059933 36.8732283 27.5059933 1.03624512 0 1.03624512"></polygon>
    </defs>
    <g id="Landing-page---Visite-guidée" stroke="none" stroke-width="1" fill="none" fill-rule="evenodd">
        <g id="Landing-Page---Desktop" transform="translate(-730.000000, -2691.000000)">
            <g id="Group-14" transform="translate(0.000000, 2396.000000)">
                <g id="Group-15" transform="translate(730.000000, 294.000000)">
                    <g id="icon_clock" transform="translate(0.000000, -0.000000)">
                        <path d="M3.56759596,7.14801347 C3.38809428,7.28 3.12940067,7.23776431 2.99477441,7.0556229 C2.86014815,6.87348148 2.90238384,6.61478788 3.08188552,6.48280135 L4.31991919,5.58529293 L6.44490236,3.03003367 C6.98076768,2.39385859 7.58790572,1.8870303 8.27951515,1.54386532 C8.94472727,1.21389899 9.68121212,1.03703704 10.4810505,1.03703704 L17.0302222,1.03703704 C17.8274209,1.03703704 18.561266,1.21389899 19.2264781,1.54386532 C19.9154478,1.8870303 20.5305051,2.39385859 21.0610909,3.03003367 L23.1913535,5.58529293 L24.421468,6.48280135 C24.6036094,6.61478788 24.6432054,6.87348148 24.5112189,7.0556229 C24.3765926,7.23776431 24.117899,7.28 23.9383973,7.14801347 L22.6686869,6.22410774 C22.6343704,6.19771044 22.6026936,6.16603367 22.5762963,6.13171717 L20.4275556,3.55534007 C19.9735219,3.00627609 19.4482155,2.57336027 18.864835,2.2829899 C18.3131313,2.00845791 17.7007138,1.860633 17.0302222,1.860633 L10.4810505,1.860633 C9.81055892,1.860633 9.19286195,2.00845791 8.64643771,2.2829899 C8.05777778,2.57336027 7.53247138,3.00627609 7.07843771,3.55534007 L4.92969697,6.13171717 C4.90329966,6.16603367 4.8716229,6.19771044 4.83466667,6.22410774 L3.56759596,7.14801347 Z" id="Fill-1" fill="#E5E6E7"></path>
                        <polygon id="Fill-3" fill="#E5E6E7" points="4.44926599 9.36749899 5.40748822 8.6706101 7.69613468 11.8198088 6.73791246 12.5166976"></polygon>
                        <path d="M2.05714209,7.73561751 L3.32949226,6.81435152 L4.59920269,5.89044579 C6.0642532,4.82663434 8.13644175,5.15396094 9.19761347,6.62165118 L9.58565387,7.15487677 C9.80211178,7.44788687 9.73347879,7.86232458 9.44046869,8.07350303 L6.03785589,10.5469306 L2.6352431,13.0177185 C2.34487273,13.2315367 1.92779529,13.1655434 1.71661684,12.8725333 L1.33121616,12.3393077 C0.262125253,10.8716175 0.592091582,8.80206869 2.05714209,7.73561751" id="Fill-5" fill="#19AFBE"></path>
                        <path d="M2.04658316,5.59347609 L2.56133064,5.21599461 C2.86225993,4.99689697 3.28461684,5.06552997 3.50635421,5.36645926 C3.7122532,5.65155017 3.92343165,5.94192054 4.1346101,6.22965118 L3.32949226,6.81303165 L2.52173468,7.39905185 L1.89611852,6.5332202 C1.67438114,6.23493064 1.74301414,5.81257374 2.04658316,5.59347609" id="Fill-7" fill="#E5E6E7"></path>
                        <polygon id="Fill-9" fill="#E5E6E7" points="23.0561993 9.36749899 22.0979771 8.6706101 19.8093306 11.8198088 20.7675529 12.5166976"></polygon>
                        <path d="M25.4485872,7.73561751 L24.1815165,6.81435152 L22.9118061,5.89044579 C21.4414761,4.82663434 19.374567,5.15396094 18.3081158,6.62165118 L17.9200754,7.15487677 C17.708897,7.44788687 17.7722505,7.86232458 18.0652606,8.07350303 L21.4678734,10.5469306 L24.8704862,13.0177185 C25.1608566,13.2315367 25.577934,13.1655434 25.7891125,12.8725333 L26.1745131,12.3393077 C27.243604,10.8716175 26.9136377,8.80206869 25.4485872,7.73561751" id="Fill-11" fill="#19AFBE"></path>
                        <path d="M25.4638976,5.59347609 L24.9438707,5.21599461 C24.6429414,4.99689697 24.2205845,5.06552997 24.0041266,5.36645926 C23.7929481,5.65155017 23.5817697,5.94192054 23.3758707,6.22965118 L24.1809886,6.81303165 L24.9834667,7.39905185 L25.6143623,6.5332202 C25.8308202,6.23493064 25.7621872,5.81257374 25.4638976,5.59347609" id="Fill-13" fill="#E5E6E7"></path>
                        <mask id="mask-2" fill="white">
                            <use xlink:href="#path-1"></use>
                        </mask>
                        <g id="Clip-16"></g>
                        <polygon id="Fill-15" fill="#E5E6E7" mask="url(#mask-2)" points="13.0640269 10.1802721 14.4393266 10.1802721 14.4393266 5.65313401 13.0640269 5.65313401"></polygon>
                        <path d="M24.5513428,35.6151327 L23.3766626,36.5707152 C23.2050801,36.7079811 22.9543057,36.6815838 22.8144,36.5100013 L20.7580498,33.9758599 C20.6234236,33.8042774 20.6471811,33.553503 20.8134842,33.416237 L21.9934438,32.4606545 C22.1650263,32.3233886 22.4158007,32.3497859 22.5557064,32.5213684 L24.6120566,35.0555098 C24.7466828,35.2244525 24.7202855,35.4778667 24.5513428,35.6151327" id="Fill-17" fill="#DBD9C7" mask="url(#mask-2)"></path>
                        <path d="M2.95412256,35.6151327 L4.13408215,36.5707152 C4.30038519,36.7079811 4.5511596,36.6815838 4.69106532,36.5100013 L6.74741549,33.9758599 C6.88732121,33.8042774 6.86092391,33.553503 6.69198114,33.416237 L5.51202155,32.4606545 C5.34043906,32.3233886 5.08966465,32.3497859 4.95503838,32.5213684 L2.89868822,35.0555098 C2.75878249,35.2244525 2.7851798,35.4778667 2.95412256,35.6151327" id="Fill-18" fill="#DBD9C7" mask="url(#mask-2)"></path>
                        <path d="M13.7553724,36.8732283 C21.3287596,36.8732283 27.5057293,30.6962586 27.5057293,23.1202316 C27.5057293,15.5442047 21.3287596,9.36723502 13.7553724,9.36723502 C6.17670572,9.36723502 -0.000263973064,15.5442047 -0.000263973064,23.1202316 C-0.000263973064,30.6962586 6.17670572,36.8732283 13.7553724,36.8732283" id="Fill-19" fill="#1795A4" mask="url(#mask-2)"></path>
                        <path d="M13.7553724,11.8784108 C19.9640189,11.8784108 24.9953455,16.9123771 24.9953455,23.1210236 C24.9953455,29.32967 19.9640189,34.3636364 13.7553724,34.3636364 C7.54144646,34.3636364 2.51011987,29.32967 2.51011987,23.1210236 C2.51011987,16.9123771 7.54144646,11.8784108 13.7553724,11.8784108" id="Fill-20" fill="#D0D2D3" mask="url(#mask-2)"></path>
                        <path d="M13.7553724,34.3636364 C7.58896162,34.3636364 2.59195152,29.3639865 2.59195152,23.2002155 C2.59195152,17.0417239 7.58896162,12.0420741 13.7553724,12.0420741 C19.9165037,12.0420741 24.9135138,17.0417239 24.9135138,23.2002155 C24.9135138,29.3639865 19.9165037,34.3636364 13.7553724,34.3636364" id="Fill-21" fill="#D4D5D7" mask="url(#mask-2)"></path>
                        <path d="M13.7553724,34.3636364 C7.63647677,34.3636364 2.67378316,29.4009428 2.67378316,23.2846869 C2.67378316,17.168431 7.63647677,12.2030976 13.7553724,12.2030976 C19.8689886,12.2030976 24.8316822,17.168431 24.8316822,23.2846869 C24.8316822,29.4009428 19.8689886,34.3636364 13.7553724,34.3636364" id="Fill-22" fill="#D8D9DA" mask="url(#mask-2)"></path>
                        <path d="M13.7553724,34.3636364 C7.68135219,34.3636364 2.75561481,29.4352593 2.75561481,23.3638788 C2.75561481,17.2977778 7.68135219,12.3667609 13.7553724,12.3667609 C19.8241131,12.3667609 24.7498505,17.2977778 24.7498505,23.3638788 C24.7498505,29.4352593 19.8241131,34.3636364 13.7553724,34.3636364" id="Fill-23" fill="#DCDDDE" mask="url(#mask-2)"></path>
                        <path d="M13.7553724,34.3636364 C7.72886734,34.3636364 2.83744646,29.4695758 2.83744646,23.4483502 C2.83744646,17.4244848 7.72886734,12.5304242 13.7553724,12.5304242 C19.776598,12.5304242 24.6680189,17.4244848 24.6680189,23.4483502 C24.6680189,29.4695758 19.776598,34.3636364 13.7553724,34.3636364" id="Fill-24" fill="#E0E1E2" mask="url(#mask-2)"></path>
                        <path d="M13.7553724,34.3636364 C7.77374276,34.3636364 2.91927811,29.506532 2.91927811,23.5301818 C2.91927811,17.5538316 7.77374276,12.6967273 13.7553724,12.6967273 C19.7317226,12.6967273 24.5888269,17.5538316 24.5888269,23.5301818 C24.5888269,29.506532 19.7317226,34.3636364 13.7553724,34.3636364" id="Fill-25" fill="#E3E4E5" mask="url(#mask-2)"></path>
                        <path d="M13.7553724,34.3636364 C7.82125791,34.3636364 3.00110976,29.5408485 3.00110976,23.6120135 C3.00110976,17.6805387 7.82125791,12.8577508 13.7553724,12.8577508 C19.6842074,12.8577508 24.5043556,17.6805387 24.5043556,23.6120135 C24.5043556,29.5408485 19.6842074,34.3636364 13.7553724,34.3636364" id="Fill-26" fill="#E7E8E9" mask="url(#mask-2)"></path>
                        <path d="M13.7553724,34.3636364 C7.86877306,34.3636364 3.08030168,29.5778047 3.08030168,23.6938451 C3.08030168,17.8098855 7.86877306,13.0214141 13.7553724,13.0214141 C19.639332,13.0214141 24.4251636,17.8098855 24.4251636,23.6938451 C24.4251636,29.5778047 19.639332,34.3636364 13.7553724,34.3636364" id="Fill-27" fill="#EBECEC" mask="url(#mask-2)"></path>
                        <path d="M13.7553724,34.3636364 C7.91364848,34.3636364 3.16213333,29.6121212 3.16213333,23.7756768 C3.16213333,17.9365926 7.91364848,13.1850774 13.7553724,13.1850774 C19.5918168,13.1850774 24.343332,17.9365926 24.343332,23.7756768 C24.343332,29.6121212 19.5918168,34.3636364 13.7553724,34.3636364" id="Fill-28" fill="#EFEFF0" mask="url(#mask-2)"></path>
                        <path d="M13.7553724,34.3636364 C7.96116364,34.3636364 3.24660471,29.6464377 3.24660471,23.8575084 C3.24660471,18.0659394 7.96116364,13.3487407 13.7553724,13.3487407 C19.5443017,13.3487407 24.2588606,18.0659394 24.2588606,23.8575084 C24.2588606,29.6464377 19.5443017,34.3636364 13.7553724,34.3636364" id="Fill-29" fill="#F3F3F4" mask="url(#mask-2)"></path>
                        <path d="M13.7553724,34.3636364 C8.00603906,34.3636364 3.32579663,29.6833939 3.32579663,23.9393401 C3.32579663,18.1952862 8.00603906,13.512404 13.7553724,13.512404 C19.4994263,13.512404 24.1796687,18.1952862 24.1796687,23.9393401 C24.1796687,29.6833939 19.4994263,34.3636364 13.7553724,34.3636364" id="Fill-30" fill="#F7F8F8" mask="url(#mask-2)"></path>
                        <path d="M13.7553724,34.3636364 C19.4519111,34.3636364 24.097837,29.7177104 24.097837,24.0211717 C24.097837,18.3219933 19.4519111,13.6760673 13.7553724,13.6760673 C8.05355421,13.6760673 3.40762828,18.3219933 3.40762828,24.0211717 C3.40762828,29.7177104 8.05355421,34.3636364 13.7553724,34.3636364" id="Fill-31" fill="#FEFEFE" mask="url(#mask-2)"></path>
                        <path d="M6.76932525,20.5296 L6.76932525,20.5296 C6.96994478,20.1785158 7.42397845,20.0570882 7.77506263,20.2603475 L13.3528135,23.4808189 L13.3528135,22.4882801 C13.3528135,22.2718222 13.5349549,22.0870411 13.7540525,22.0870411 C13.9757899,22.0870411 14.1579313,22.2665428 14.1579313,22.4882801 L14.1579313,23.7025562 L21.6336485,19.3865966 C21.9055407,19.2255731 22.2619044,19.3206034 22.4229279,19.5977751 C22.5813118,19.8723071 22.4889212,20.2313104 22.2117495,20.3870545 L14.1579313,25.0382599 L14.1579313,31.9886707 C14.1579313,32.2104081 13.9757899,32.3899098 13.7540525,32.3899098 C13.5349549,32.3899098 13.3528135,32.2051286 13.3528135,31.9886707 L13.3528135,25.1491286 C13.2868202,25.1306505 13.2181872,25.1042532 13.1627529,25.0699367 L7.03857778,21.5353374 C6.6874936,21.3320781 6.56342626,20.8806842 6.76932525,20.5296" id="Fill-32" fill="#FEFEFE" mask="url(#mask-2)"></path>
                        <path d="M6.76932525,20.4446007 L6.76932525,20.4446007 C6.96994478,20.0935165 7.42397845,19.9720889 7.77506263,20.1753481 C7.94136566,20.2730182 13.1838707,23.2981495 13.3528135,23.3958195 L13.3528135,22.4032808 C13.3528135,22.1868229 13.5349549,22.0020418 13.7540525,22.0020418 C13.9757899,22.0020418 14.1579313,22.1815434 14.1579313,22.4032808 L14.1579313,23.6175569 C14.3849481,23.4855704 21.4066316,19.4335838 21.6336485,19.3015973 C21.9055407,19.1405737 22.2619044,19.235604 22.4229279,19.5127758 C22.5813118,19.7873077 22.4889212,20.1463111 22.2117495,20.3020552 C21.9662545,20.4446007 14.4034263,24.8133549 14.1579313,24.9532606 L14.1579313,31.9036714 C14.1579313,32.1254088 13.9757899,32.3049104 13.7540525,32.3049104 C13.5349549,32.3049104 13.3528135,32.1201293 13.3528135,31.9036714 L13.3528135,25.0641293 C13.2868202,25.0456512 13.2181872,25.0192539 13.1627529,24.9849374 C12.9779717,24.8793481 7.22335892,21.5559273 7.03857778,21.450338 C6.6874936,21.2470788 6.56342626,20.7956848 6.76932525,20.4446007" id="Fill-33" fill="#FAFAFA" mask="url(#mask-2)"></path>
                        <path d="M6.76932525,20.3593374 L6.76932525,20.3593374 C6.96994478,20.0082532 7.42397845,19.8868256 7.77506263,20.0900848 C8.11294815,20.2854249 13.0149279,23.1152162 13.3528135,23.3105562 L13.3528135,22.3180175 C13.3528135,22.1015596 13.5349549,21.9167785 13.7540525,21.9167785 C13.9757899,21.9167785 14.1579313,22.0962801 14.1579313,22.3180175 L14.1579313,23.5322936 C14.611965,23.2709603 21.1796148,19.4776673 21.6336485,19.216334 C21.9055407,19.0553104 22.2619044,19.1503407 22.4229279,19.4275125 C22.5813118,19.7020444 22.4889212,20.0610478 22.2117495,20.2167919 C21.7233993,20.4992431 14.6436418,24.5881859 14.1579313,24.8679973 L14.1579313,31.8184081 C14.1579313,32.0401455 13.9757899,32.2196471 13.7540525,32.2196471 C13.5349549,32.2196471 13.3528135,32.034866 13.3528135,31.8184081 L13.3528135,24.978866 C13.2868202,24.9603879 13.2181872,24.9339906 13.1627529,24.8996741 C12.7905508,24.6858559 7.40814007,21.5788929 7.03857778,21.3650747 C6.6874936,21.1618155 6.56342626,20.7104215 6.76932525,20.3593374" id="Fill-34" fill="#F7F8F8" mask="url(#mask-2)"></path>
                        <path d="M6.76932525,20.274338 L6.76932525,20.274338 C6.96994478,19.9258936 7.42397845,19.8018263 7.77506263,20.0050855 C8.27925118,20.2980956 12.8459852,22.9325468 13.3528135,23.2255569 L13.3528135,22.2356579 C13.3528135,22.0165603 13.5349549,21.8317791 13.7540525,21.8317791 C13.9757899,21.8317791 14.1579313,22.0112808 14.1579313,22.2356579 L14.1579313,23.4472943 C14.8363421,23.0539744 20.952598,19.5246545 21.6336485,19.1313347 C21.9055407,18.9703111 22.2645441,19.0653414 22.4229279,19.3425131 C22.5813118,19.6170451 22.4889212,19.9760485 22.2117495,20.1344323 C21.4779044,20.5541495 14.8891367,24.3606411 14.1579313,24.782998 L14.1579313,31.7334088 C14.1579313,31.9551461 13.9757899,32.1372875 13.7540525,32.1372875 C13.5349549,32.1372875 13.3528135,31.9498667 13.3528135,31.7334088 L13.3528135,24.8938667 C13.2868202,24.8780283 13.2181872,24.8489912 13.1627529,24.8146747 C12.6057697,24.4952673 7.59292121,21.6021226 7.03857778,21.2800754 C6.6874936,21.0794559 6.56342626,20.6254222 6.76932525,20.274338" id="Fill-35" fill="#F5F5F6" mask="url(#mask-2)"></path>
                        <path d="M6.76932525,20.1893387 L6.76932525,20.1893387 C6.96994478,19.8408943 7.42397845,19.7168269 7.77506263,19.9200862 C8.45083367,20.3107663 12.6744027,22.7498774 13.3528135,23.1405576 L13.3528135,22.1506586 C13.3528135,21.9315609 13.5349549,21.7467798 13.7540525,21.7467798 C13.9757899,21.7467798 14.1579313,21.9262815 14.1579313,22.1506586 L14.1579313,23.3622949 C15.0633589,22.8396283 20.7255811,19.569002 21.6336485,19.0463354 C21.9055407,18.8853118 22.2645441,18.9803421 22.4229279,19.2575138 C22.5813118,19.5320458 22.4889212,19.8910492 22.2117495,20.049433 C21.2324094,20.6116956 15.1319919,24.135736 14.1579313,24.6979987 L14.1579313,31.6484094 C14.1579313,31.8701468 13.9757899,32.0522882 13.7540525,32.0522882 C13.5349549,32.0522882 13.3528135,31.8648673 13.3528135,31.6484094 L13.3528135,24.8088673 C13.2868202,24.793029 13.2181872,24.7639919 13.1627529,24.7296754 C12.4209886,24.3020391 7.78034209,21.6227125 7.03857778,21.1950761 C6.6874936,20.9944566 6.56342626,20.5404229 6.76932525,20.1893387" id="Fill-36" fill="#F3F3F4" mask="url(#mask-2)"></path>
                        <path d="M6.76932525,20.1043394 L6.76932525,20.1043394 C6.96994478,19.7558949 7.42397845,19.6318276 7.77506263,19.8350869 C8.6171367,20.323437 12.5080997,22.5698478 13.3528135,23.0555582 L13.3528135,22.0656593 C13.3528135,21.8465616 13.5349549,21.6617805 13.7540525,21.6617805 C13.9757899,21.6617805 14.1579313,21.8412822 14.1579313,22.0656593 L14.1579313,23.2772956 C15.2903758,22.6252822 20.4985643,19.6159892 21.6336485,18.961336 C21.9055407,18.8003125 22.2645441,18.8953428 22.4229279,19.1725145 C22.5813118,19.4470465 22.4889212,19.8060498 22.2117495,19.9644337 C20.9895542,20.666602 15.3774869,23.910831 14.1579313,24.6129993 L14.1579313,31.5634101 C14.1579313,31.7851475 13.9757899,31.9672889 13.7540525,31.9672889 C13.5349549,31.9672889 13.3528135,31.779868 13.3528135,31.5634101 L13.3528135,24.723868 C13.2868202,24.7080296 13.2181872,24.6789926 13.1627529,24.6446761 C12.2335677,24.1114505 7.96512323,21.6459421 7.03857778,21.1100768 C6.6874936,20.9094572 6.56342626,20.4554236 6.76932525,20.1043394" id="Fill-37" fill="#F1F2F2" mask="url(#mask-2)"></path>
                        <path d="M6.76932525,20.020396 L6.76932525,20.020396 C6.96994478,19.6693118 7.42397845,19.5478842 7.77506263,19.7511434 C8.78871919,20.3371636 12.3365172,22.3855946 13.3528135,22.9716148 L13.3528135,21.9790761 C13.3528135,21.7626182 13.5349549,21.577837 13.7540525,21.577837 C13.9757899,21.577837 14.1579313,21.7573387 14.1579313,21.9790761 L14.1579313,23.1933522 C15.5147529,22.4067125 20.2715475,19.6613926 21.6336485,18.8773926 C21.9055407,18.716369 22.2645441,18.8113993 22.4229279,19.088571 C22.5813118,19.363103 22.4889212,19.7221064 22.2117495,19.8778505 C20.746699,20.725204 15.6203421,23.6843421 14.1579313,24.5290559 L14.1579313,31.4794667 C14.1579313,31.701204 13.9757899,31.8807057 13.7540525,31.8807057 C13.5349549,31.8807057 13.3528135,31.6959246 13.3528135,31.4794667 L13.3528135,24.6399246 C13.2868202,24.6214465 13.2181872,24.5950492 13.1627529,24.5607327 C12.0487865,23.9192781 8.14990438,21.6675879 7.03857778,21.0261333 C6.6874936,20.8228741 6.56342626,20.3714801 6.76932525,20.020396" id="Fill-38" fill="#EFEFF0" mask="url(#mask-2)"></path>
                        <path d="M6.76932525,19.9353966 L6.76932525,19.9353966 C6.96994478,19.5843125 7.42397845,19.4628848 7.77506263,19.6661441 C8.95502222,20.3498343 12.1702141,22.2029253 13.3528135,22.8866155 L13.3528135,21.8940768 C13.3528135,21.6776189 13.5349549,21.4928377 13.7540525,21.4928377 C13.9757899,21.4928377 14.1579313,21.6723394 14.1579313,21.8940768 L14.1579313,23.1083529 C15.7417697,22.1923663 20.0445306,19.7083798 21.6336485,18.7923933 C21.9055407,18.6313697 22.2645441,18.7264 22.4229279,19.0035717 C22.5813118,19.2781037 22.4889212,19.6371071 22.2117495,19.7928512 C20.501204,20.7801104 15.8631973,23.4567973 14.1579313,24.4440566 L14.1579313,31.3944673 C14.1579313,31.6162047 13.9757899,31.7957064 13.7540525,31.7957064 C13.5349549,31.7957064 13.3528135,31.6109253 13.3528135,31.3944673 L13.3528135,24.5549253 C13.2868202,24.5364471 13.2181872,24.5100498 13.1627529,24.4757333 C11.8640054,23.7260498 8.33732525,21.6908175 7.03857778,20.941134 C6.6874936,20.7378747 6.56342626,20.2864808 6.76932525,19.9353966" id="Fill-39" fill="#EDEEEE" mask="url(#mask-2)"></path>
                        <path d="M6.76932525,19.8503973 L6.76932525,19.8503973 C6.96994478,19.4993131 7.42397845,19.3778855 7.77506263,19.5811448 C9.12660471,20.3625051 11.9986316,22.0202559 13.3528135,22.8016162 L13.3528135,21.8090774 C13.3528135,21.5926195 13.5349549,21.4078384 13.7540525,21.4078384 C13.9757899,21.4078384 14.1579313,21.5873401 14.1579313,21.8090774 L14.1579313,23.0233535 C15.9687865,21.9780202 19.8175138,19.7527273 21.6336485,18.7073939 C21.9055407,18.5463704 22.2645441,18.6414007 22.4229279,18.9185724 C22.5813118,19.1931044 22.4889212,19.5521077 22.2117495,19.7078519 C20.2557091,20.8376566 16.1060525,23.2318923 14.1579313,24.3590572 L14.1579313,31.309468 C14.1579313,31.5312054 13.9757899,31.7107071 13.7540525,31.7107071 C13.5349549,31.7107071 13.3528135,31.5259259 13.3528135,31.309468 L13.3528135,24.4699259 C13.2868202,24.4514478 13.2181872,24.4250505 13.1627529,24.390734 C11.6765845,23.5354613 8.5221064,21.7114074 7.03857778,20.8561347 C6.6874936,20.6528754 6.56342626,20.2014815 6.76932525,19.8503973" id="Fill-40" fill="#EBECEC" mask="url(#mask-2)"></path>
                        <path d="M6.76932525,19.765134 L6.76932525,19.765134 C6.96994478,19.4166896 7.42397845,19.2926222 7.77506263,19.4958815 C9.29290774,20.3722721 11.8296889,21.8373226 13.3528135,22.7163529 L13.3528135,21.7264539 C13.3528135,21.5073562 13.5349549,21.3225751 13.7540525,21.3225751 C13.9757899,21.3225751 14.1579313,21.5020768 14.1579313,21.7264539 L14.1579313,22.9380902 C16.1931636,21.7607704 19.590497,19.7994505 21.6336485,18.6221306 C21.9055407,18.4611071 22.2671838,18.5561374 22.4229279,18.8333091 C22.5813118,19.1078411 22.4889212,19.4668444 22.2117495,19.6252283 C20.0128539,20.892299 16.3515475,23.0067232 14.1579313,24.2737939 L14.1579313,31.2242047 C14.1579313,31.4459421 13.9757899,31.6280835 13.7540525,31.6280835 C13.5349549,31.6280835 13.3528135,31.4406626 13.3528135,31.2242047 L13.3528135,24.3846626 C13.2868202,24.3688242 13.2181872,24.3397872 13.1627529,24.3054707 C11.4918034,23.341969 8.70688754,21.7343731 7.03857778,20.7708714 C6.6874936,20.5702519 6.56342626,20.1162182 6.76932525,19.765134" id="Fill-41" fill="#E9EAEB" mask="url(#mask-2)"></path>
                        <path d="M6.76932525,19.6801347 L6.76932525,19.6801347 C6.96994478,19.3316902 7.42397845,19.2076229 7.77506263,19.4108822 C9.46449024,20.3875825 11.6633859,21.6572929 13.3528135,22.6313535 L13.3528135,21.6414545 C13.3528135,21.4223569 13.5349549,21.2375758 13.7540525,21.2375758 C13.9757899,21.2375758 14.1579313,21.4170774 14.1579313,21.6414545 L14.1579313,22.8530909 C16.4201805,21.5464242 19.3634801,19.843798 21.6336485,18.5371313 C21.9055407,18.3761077 22.2671838,18.4737778 22.4229279,18.7483098 C22.5813118,19.0228418 22.4889212,19.3818451 22.2117495,19.540229 C19.7699987,20.9472054 16.5944027,22.7791785 14.1579313,24.1887946 L14.1579313,31.1392054 C14.1579313,31.3609428 13.9757899,31.5430842 13.7540525,31.5430842 C13.5349549,31.5430842 13.3528135,31.3556633 13.3528135,31.1392054 L13.3528135,24.2996633 C13.2868202,24.2838249 13.2181872,24.2547879 13.1627529,24.2204714 C11.3070222,23.1487407 8.89430842,21.7576027 7.03857778,20.6858721 C6.6874936,20.4852525 6.56342626,20.0312189 6.76932525,19.6801347" id="Fill-42" fill="#E7E8E9" mask="url(#mask-2)"></path>
                        <path d="M6.76932525,19.5951354 L6.76932525,19.5951354 C6.96994478,19.2466909 7.42397845,19.1226236 7.77506263,19.3258828 C9.63079327,20.4002532 11.4918034,21.4719838 13.3528135,22.5463542 L13.3528135,21.5564552 C13.3528135,21.3373576 13.5349549,21.1525764 13.7540525,21.1525764 C13.9757899,21.1525764 14.1579313,21.3320781 14.1579313,21.5564552 L14.1579313,22.7680916 C16.6471973,21.3294384 19.139103,19.8907852 21.6336485,18.452132 C21.9055407,18.2911084 22.2671838,18.3887785 22.4229279,18.6633104 C22.5813118,18.9378424 22.4889212,19.2968458 22.2117495,19.4552296 C19.5245037,21.0047515 16.8372579,22.5542734 14.1579313,24.1037953 L14.1579313,31.0542061 C14.1579313,31.2759434 13.9757899,31.4580848 13.7540525,31.4580848 C13.5349549,31.4580848 13.3528135,31.270664 13.3528135,31.0542061 L13.3528135,24.214664 C13.2868202,24.1988256 13.2181872,24.1697886 13.1627529,24.1354721 C11.1196013,22.9581522 9.07908956,21.7781926 7.03857778,20.6008727 C6.6874936,20.4002532 6.56342626,19.9462195 6.76932525,19.5951354" id="Fill-43" fill="#E5E6E7" mask="url(#mask-2)"></path>
                        <path d="M6.76932525,19.0473912 L6.76932525,19.0473912 C6.96994478,18.6963071 7.42397845,18.5775192 7.77506263,18.7781387 L13.8939582,22.312738 C14.2450424,22.5159973 14.3691098,22.9673912 14.1684902,23.3184754 C13.9625912,23.6695596 13.5085576,23.7909872 13.1627529,23.5877279 L7.03857778,20.0531286 C6.6874936,19.8525091 6.56342626,19.3984754 6.76932525,19.0473912" id="Fill-44" fill="#123E52" mask="url(#mask-2)"></path>
                        <path d="M22.422136,18.1153024 L22.422136,18.1153024 C22.5831596,18.3898343 22.4881293,18.746198 22.2109576,18.9072215 L14.1201832,23.5769051 C13.8430114,23.7352889 13.4866478,23.6428983 13.328264,23.3657266 C13.1725199,23.0911946 13.2649104,22.734831 13.5394424,22.5738074 L21.6328566,17.9041239 C21.9073886,17.7457401 22.2663919,17.8407704 22.422136,18.1153024" id="Fill-45" fill="#123E52" mask="url(#mask-2)"></path>
                        <path d="M13.3530774,30.8448754 L13.3530774,21.0065993 C13.3530774,20.7901414 13.5325791,20.6053603 13.7543165,20.6053603 C13.9760539,20.6053603 14.1581953,20.784862 14.1581953,21.0065993 L14.1581953,30.8448754 C14.1581953,31.378101 13.3530774,31.3754613 13.3530774,30.8448754" id="Fill-46" fill="#EF5661" mask="url(#mask-2)"></path>
                        <path d="M13.7553724,21.7166869 C14.5288135,21.7166869 15.1570694,22.3475825 15.1570694,23.1210236 C15.1570694,23.8971044 14.5288135,24.5227205 13.7553724,24.5227205 C12.9766519,24.5227205 12.348396,23.8971044 12.348396,23.1210236 C12.348396,22.3475825 12.9766519,21.7166869 13.7553724,21.7166869" id="Fill-47" fill="#EF5661" mask="url(#mask-2)"></path>
                        <path d="M13.7553724,12.5755636 C14.1830088,12.5755636 14.5340929,12.9240081 14.5340929,13.3542842 C14.5340929,13.7845603 14.1830088,14.130365 13.7553724,14.130365 C13.3224566,14.130365 12.9766519,13.7845603 12.9766519,13.3542842 C12.9766519,12.9240081 13.3224566,12.5755636 13.7553724,12.5755636 M3.20700875,23.1212875 C3.20700875,22.6910114 3.55809293,22.342567 3.98572929,22.342567 C4.41336566,22.342567 4.76444983,22.6910114 4.76444983,23.1212875 C4.76444983,23.5489239 4.41336566,23.9000081 3.98572929,23.9000081 C3.55809293,23.9000081 3.20700875,23.5489239 3.20700875,23.1212875 M24.2984566,23.1212875 C24.2984566,23.5515636 23.9526519,23.9000081 23.519736,23.9000081 C23.0920997,23.9000081 22.7410155,23.5515636 22.7410155,23.1212875 C22.7410155,22.6936512 23.0920997,22.342567 23.519736,22.342567 C23.9526519,22.342567 24.2984566,22.6936512 24.2984566,23.1212875 M13.7553724,33.6670114 C13.3224566,33.6670114 12.9766519,33.318567 12.9766519,32.8882909 C12.9766519,32.4580148 13.3224566,32.1095704 13.7553724,32.1095704 C14.1830088,32.1095704 14.5340929,32.4580148 14.5340929,32.8882909 C14.5340929,33.318567 14.1830088,33.6670114 13.7553724,33.6670114" id="Fill-48" fill="#1F4344" mask="url(#mask-2)"></path>
                        <path d="M11.6002963,4.36626532 L15.905697,4.36626532 C16.1221549,4.36626532 16.2963771,4.54048754 16.2963771,4.75430572 L16.2963771,5.95538316 C16.2963771,6.16920135 16.1221549,6.34342357 15.905697,6.34342357 L11.6002963,6.34342357 C11.3891178,6.34342357 11.2148956,6.16920135 11.2148956,5.95538316 L11.2148956,4.75430572 C11.2148956,4.54048754 11.3838384,4.36626532 11.6002963,4.36626532" id="Fill-49" fill="#C8C6B6" mask="url(#mask-2)"></path>
                    </g>
                </g>
            </g>
        </g>
    </g>
</svg>