<?xml version="1.0" encoding="UTF-8"?>
<svg width="196px" height="31px" viewBox="0 0 196 31" version="1.1" xmlns="http://www.w3.org/2000/svg" xmlns:xlink="http://www.w3.org/1999/xlink">
    <!-- Generator: sketchtool 54.1 (76490) - https://sketchapp.com -->
    <title>3A3F6904-15FF-40DF-BD46-445B3FB9ED69</title>
    <desc>Created with sketchtool.</desc>
    <defs>
        <polygon id="path-1" points="4.1789959e-05 1.5104 32 1.5104 32 31.9994 4.1789959e-05 31.9994"></polygon>
        <polygon id="path-3" points="0.0298 1.51 31.9658 1.51 31.9658 31.8878 0.0298 31.8878"></polygon>
        <polygon id="path-5" points="4.1789959e-05 1.5104 32 1.5104 32 31.9994 4.1789959e-05 31.9994"></polygon>
        <polygon id="path-7" points="0.0298 1.51 31.9658 1.51 31.9658 31.8878 0.0298 31.8878"></polygon>
        <polygon id="path-9" points="4.1789959e-05 1.5104 32 1.5104 32 31.9994 4.1789959e-05 31.9994"></polygon>
        <polygon id="path-11" points="0.0298 1.51 31.9658 1.51 31.9658 31.8878 0.0298 31.8878"></polygon>
        <polygon id="path-13" points="4.1789959e-05 1.5104 32 1.5104 32 31.9994 4.1789959e-05 31.9994"></polygon>
        <polygon id="path-15" points="0.0298 1.51 31.9658 1.51 31.9658 31.8878 0.0298 31.8878"></polygon>
        <polygon id="path-17" points="4.1789959e-05 1.5104 32 1.5104 32 31.9994 4.1789959e-05 31.9994"></polygon>
        <polygon id="path-19" points="0.0298 1.51 31.9658 1.51 31.9658 31.8878 0.0298 31.8878"></polygon>
    </defs>
    <g id="Landing-page---Visite-guidée" stroke="none" stroke-width="1" fill="none" fill-rule="evenodd">
        <g id="Landing-Page---Desktop" transform="translate(-298.000000, -4454.000000)">
            <g id="Group-13" transform="translate(258.000000, 4200.000000)">
                <g id="Group-12" transform="translate(-0.000000, 0.000000)">
                    <g id="Group-9" transform="translate(-0.000000, 132.000000)">
                        <g id="groupe_5_star" transform="translate(40.000000, 120.000000)">
                            <g id="icon_star-copy">
                                <g id="Group-3" transform="translate(0.000000, 0.490200)">
                                    <mask id="mask-2" fill="white">
                                        <use xlink:href="#path-1"></use>
                                    </mask>
                                    <g id="Clip-2"></g>
                                    <path d="M16.5372,1.9024 L19.9092,12.3544 C19.9872,12.5904 20.2012,12.7464 20.4472,12.7464 L31.4312,12.7224 C31.6812,12.7224 31.8932,12.8784 31.9712,13.1144 C32.0492,13.3544 31.9672,13.6044 31.7632,13.7464 L22.8692,20.1864 C22.6652,20.3344 22.5832,20.5824 22.6632,20.8204 L26.0772,31.2564 C26.1552,31.4944 26.0732,31.7444 25.8692,31.8884 C25.6692,32.0364 25.4052,32.0364 25.2052,31.8884 L16.3292,25.4184 C16.1312,25.2704 15.8652,25.2704 15.6652,25.4184 L6.7952,31.8884 C6.5912,32.0364 6.3292,32.0364 6.1272,31.8884 C5.9272,31.7444 5.8452,31.4944 5.9232,31.2564 L9.3372,20.8204 C9.4152,20.5824 9.3332,20.3344 9.1312,20.1864 L0.2332,13.7464 C0.0332,13.6044 -0.0488,13.3544 0.0292,13.1144 C0.1032,12.8784 0.3152,12.7224 0.5692,12.7244 L11.5492,12.7464 C11.7992,12.7464 12.0092,12.5904 12.0872,12.3544 L15.4632,1.9024 C15.5372,1.6664 15.7472,1.5124 15.9972,1.5104 C16.2472,1.5104 16.4592,1.6664 16.5372,1.9024" id="Fill-1" fill="#F89B1F" mask="url(#mask-2)"></path>
                                </g>
                                <g id="Group-6" transform="translate(0.000000, 0.490200)">
                                    <mask id="mask-4" fill="white">
                                        <use xlink:href="#path-3"></use>
                                    </mask>
                                    <g id="Clip-5"></g>
                                    <path d="M16.0058,1.5098 L16.0058,17.1458 L20.0378,12.7458 L20.4278,12.7458 L20.4358,12.7458 L20.4478,12.7458 L31.4318,12.7218 L31.4438,12.7218 C31.6898,12.7278 31.8878,12.8798 31.9658,13.1098 L16.9198,17.9278 L22.5338,20.4258 L22.6538,20.7978 L22.6578,20.8078 L22.6618,20.8198 L26.0758,31.2558 L26.0798,31.2678 L26.0798,31.2798 C26.1458,31.5098 26.0638,31.7498 25.8698,31.8878 L15.9978,18.3158 L6.1318,31.8878 L6.1278,31.8878 C5.9318,31.7478 5.8498,31.5098 5.9158,31.2798 L5.9198,31.2678 L5.9238,31.2558 L9.3378,20.8198 L9.3418,20.8078 L9.3418,20.7978 L9.4658,20.4258 L15.0758,17.9278 L0.0298,13.1098 C0.1078,12.8758 0.3178,12.7218 0.5678,12.7238 L11.5478,12.7458 L11.5598,12.7458 L11.5718,12.7458 L11.9598,12.7458 L12.0798,12.3778 L12.0838,12.3658 L12.0878,12.3538 L15.4638,1.9018 L15.4658,1.8898 L15.4698,1.8818 C15.5518,1.6578 15.7558,1.5118 15.9978,1.5098 L16.0058,1.5098 Z" id="Fill-4" fill="#FCBF15" mask="url(#mask-4)"></path>
                                </g>
                            </g>
                            <g id="icon_star-copy-2" transform="translate(164.000000, 0.000000)">
                                <g id="Group-3" transform="translate(0.000000, 0.490200)">
                                    <mask id="mask-6" fill="white">
                                        <use xlink:href="#path-5"></use>
                                    </mask>
                                    <g id="Clip-2"></g>
                                    <path d="M16.5372,1.9024 L19.9092,12.3544 C19.9872,12.5904 20.2012,12.7464 20.4472,12.7464 L31.4312,12.7224 C31.6812,12.7224 31.8932,12.8784 31.9712,13.1144 C32.0492,13.3544 31.9672,13.6044 31.7632,13.7464 L22.8692,20.1864 C22.6652,20.3344 22.5832,20.5824 22.6632,20.8204 L26.0772,31.2564 C26.1552,31.4944 26.0732,31.7444 25.8692,31.8884 C25.6692,32.0364 25.4052,32.0364 25.2052,31.8884 L16.3292,25.4184 C16.1312,25.2704 15.8652,25.2704 15.6652,25.4184 L6.7952,31.8884 C6.5912,32.0364 6.3292,32.0364 6.1272,31.8884 C5.9272,31.7444 5.8452,31.4944 5.9232,31.2564 L9.3372,20.8204 C9.4152,20.5824 9.3332,20.3344 9.1312,20.1864 L0.2332,13.7464 C0.0332,13.6044 -0.0488,13.3544 0.0292,13.1144 C0.1032,12.8784 0.3152,12.7224 0.5692,12.7244 L11.5492,12.7464 C11.7992,12.7464 12.0092,12.5904 12.0872,12.3544 L15.4632,1.9024 C15.5372,1.6664 15.7472,1.5124 15.9972,1.5104 C16.2472,1.5104 16.4592,1.6664 16.5372,1.9024" id="Fill-1" fill="#F89B1F" mask="url(#mask-6)"></path>
                                </g>
                                <g id="Group-6" transform="translate(0.000000, 0.490200)">
                                    <mask id="mask-8" fill="white">
                                        <use xlink:href="#path-7"></use>
                                    </mask>
                                    <g id="Clip-5"></g>
                                    <path d="M16.0058,1.5098 L16.0058,17.1458 L20.0378,12.7458 L20.4278,12.7458 L20.4358,12.7458 L20.4478,12.7458 L31.4318,12.7218 L31.4438,12.7218 C31.6898,12.7278 31.8878,12.8798 31.9658,13.1098 L16.9198,17.9278 L22.5338,20.4258 L22.6538,20.7978 L22.6578,20.8078 L22.6618,20.8198 L26.0758,31.2558 L26.0798,31.2678 L26.0798,31.2798 C26.1458,31.5098 26.0638,31.7498 25.8698,31.8878 L15.9978,18.3158 L6.1318,31.8878 L6.1278,31.8878 C5.9318,31.7478 5.8498,31.5098 5.9158,31.2798 L5.9198,31.2678 L5.9238,31.2558 L9.3378,20.8198 L9.3418,20.8078 L9.3418,20.7978 L9.4658,20.4258 L15.0758,17.9278 L0.0298,13.1098 C0.1078,12.8758 0.3178,12.7218 0.5678,12.7238 L11.5478,12.7458 L11.5598,12.7458 L11.5718,12.7458 L11.9598,12.7458 L12.0798,12.3778 L12.0838,12.3658 L12.0878,12.3538 L15.4638,1.9018 L15.4658,1.8898 L15.4698,1.8818 C15.5518,1.6578 15.7558,1.5118 15.9978,1.5098 L16.0058,1.5098 Z" id="Fill-4" fill="#FCBF15" mask="url(#mask-8)"></path>
                                </g>
                            </g>
                            <g id="icon_star-copy-3" transform="translate(41.000000, 0.000000)">
                                <g id="Group-3" transform="translate(0.000000, 0.490200)">
                                    <mask id="mask-10" fill="white">
                                        <use xlink:href="#path-9"></use>
                                    </mask>
                                    <g id="Clip-2"></g>
                                    <path d="M16.5372,1.9024 L19.9092,12.3544 C19.9872,12.5904 20.2012,12.7464 20.4472,12.7464 L31.4312,12.7224 C31.6812,12.7224 31.8932,12.8784 31.9712,13.1144 C32.0492,13.3544 31.9672,13.6044 31.7632,13.7464 L22.8692,20.1864 C22.6652,20.3344 22.5832,20.5824 22.6632,20.8204 L26.0772,31.2564 C26.1552,31.4944 26.0732,31.7444 25.8692,31.8884 C25.6692,32.0364 25.4052,32.0364 25.2052,31.8884 L16.3292,25.4184 C16.1312,25.2704 15.8652,25.2704 15.6652,25.4184 L6.7952,31.8884 C6.5912,32.0364 6.3292,32.0364 6.1272,31.8884 C5.9272,31.7444 5.8452,31.4944 5.9232,31.2564 L9.3372,20.8204 C9.4152,20.5824 9.3332,20.3344 9.1312,20.1864 L0.2332,13.7464 C0.0332,13.6044 -0.0488,13.3544 0.0292,13.1144 C0.1032,12.8784 0.3152,12.7224 0.5692,12.7244 L11.5492,12.7464 C11.7992,12.7464 12.0092,12.5904 12.0872,12.3544 L15.4632,1.9024 C15.5372,1.6664 15.7472,1.5124 15.9972,1.5104 C16.2472,1.5104 16.4592,1.6664 16.5372,1.9024" id="Fill-1" fill="#F89B1F" mask="url(#mask-10)"></path>
                                </g>
                                <g id="Group-6" transform="translate(0.000000, 0.490200)">
                                    <mask id="mask-12" fill="white">
                                        <use xlink:href="#path-11"></use>
                                    </mask>
                                    <g id="Clip-5"></g>
                                    <path d="M16.0058,1.5098 L16.0058,17.1458 L20.0378,12.7458 L20.4278,12.7458 L20.4358,12.7458 L20.4478,12.7458 L31.4318,12.7218 L31.4438,12.7218 C31.6898,12.7278 31.8878,12.8798 31.9658,13.1098 L16.9198,17.9278 L22.5338,20.4258 L22.6538,20.7978 L22.6578,20.8078 L22.6618,20.8198 L26.0758,31.2558 L26.0798,31.2678 L26.0798,31.2798 C26.1458,31.5098 26.0638,31.7498 25.8698,31.8878 L15.9978,18.3158 L6.1318,31.8878 L6.1278,31.8878 C5.9318,31.7478 5.8498,31.5098 5.9158,31.2798 L5.9198,31.2678 L5.9238,31.2558 L9.3378,20.8198 L9.3418,20.8078 L9.3418,20.7978 L9.4658,20.4258 L15.0758,17.9278 L0.0298,13.1098 C0.1078,12.8758 0.3178,12.7218 0.5678,12.7238 L11.5478,12.7458 L11.5598,12.7458 L11.5718,12.7458 L11.9598,12.7458 L12.0798,12.3778 L12.0838,12.3658 L12.0878,12.3538 L15.4638,1.9018 L15.4658,1.8898 L15.4698,1.8818 C15.5518,1.6578 15.7558,1.5118 15.9978,1.5098 L16.0058,1.5098 Z" id="Fill-4" fill="#FCBF15" mask="url(#mask-12)"></path>
                                </g>
                            </g>
                            <g id="icon_star-copy-4" transform="translate(123.000000, 0.000000)">
                                <g id="Group-3" transform="translate(0.000000, 0.490200)">
                                    <mask id="mask-14" fill="white">
                                        <use xlink:href="#path-13"></use>
                                    </mask>
                                    <g id="Clip-2"></g>
                                    <path d="M16.5372,1.9024 L19.9092,12.3544 C19.9872,12.5904 20.2012,12.7464 20.4472,12.7464 L31.4312,12.7224 C31.6812,12.7224 31.8932,12.8784 31.9712,13.1144 C32.0492,13.3544 31.9672,13.6044 31.7632,13.7464 L22.8692,20.1864 C22.6652,20.3344 22.5832,20.5824 22.6632,20.8204 L26.0772,31.2564 C26.1552,31.4944 26.0732,31.7444 25.8692,31.8884 C25.6692,32.0364 25.4052,32.0364 25.2052,31.8884 L16.3292,25.4184 C16.1312,25.2704 15.8652,25.2704 15.6652,25.4184 L6.7952,31.8884 C6.5912,32.0364 6.3292,32.0364 6.1272,31.8884 C5.9272,31.7444 5.8452,31.4944 5.9232,31.2564 L9.3372,20.8204 C9.4152,20.5824 9.3332,20.3344 9.1312,20.1864 L0.2332,13.7464 C0.0332,13.6044 -0.0488,13.3544 0.0292,13.1144 C0.1032,12.8784 0.3152,12.7224 0.5692,12.7244 L11.5492,12.7464 C11.7992,12.7464 12.0092,12.5904 12.0872,12.3544 L15.4632,1.9024 C15.5372,1.6664 15.7472,1.5124 15.9972,1.5104 C16.2472,1.5104 16.4592,1.6664 16.5372,1.9024" id="Fill-1" fill="#F89B1F" mask="url(#mask-14)"></path>
                                </g>
                                <g id="Group-6" transform="translate(0.000000, 0.490200)">
                                    <mask id="mask-16" fill="white">
                                        <use xlink:href="#path-15"></use>
                                    </mask>
                                    <g id="Clip-5"></g>
                                    <path d="M16.0058,1.5098 L16.0058,17.1458 L20.0378,12.7458 L20.4278,12.7458 L20.4358,12.7458 L20.4478,12.7458 L31.4318,12.7218 L31.4438,12.7218 C31.6898,12.7278 31.8878,12.8798 31.9658,13.1098 L16.9198,17.9278 L22.5338,20.4258 L22.6538,20.7978 L22.6578,20.8078 L22.6618,20.8198 L26.0758,31.2558 L26.0798,31.2678 L26.0798,31.2798 C26.1458,31.5098 26.0638,31.7498 25.8698,31.8878 L15.9978,18.3158 L6.1318,31.8878 L6.1278,31.8878 C5.9318,31.7478 5.8498,31.5098 5.9158,31.2798 L5.9198,31.2678 L5.9238,31.2558 L9.3378,20.8198 L9.3418,20.8078 L9.3418,20.7978 L9.4658,20.4258 L15.0758,17.9278 L0.0298,13.1098 C0.1078,12.8758 0.3178,12.7218 0.5678,12.7238 L11.5478,12.7458 L11.5598,12.7458 L11.5718,12.7458 L11.9598,12.7458 L12.0798,12.3778 L12.0838,12.3658 L12.0878,12.3538 L15.4638,1.9018 L15.4658,1.8898 L15.4698,1.8818 C15.5518,1.6578 15.7558,1.5118 15.9978,1.5098 L16.0058,1.5098 Z" id="Fill-4" fill="#FCBF15" mask="url(#mask-16)"></path>
                                </g>
                            </g>
                            <g id="icon_star" transform="translate(82.000000, 0.000000)">
                                <g id="Group-3" transform="translate(0.000000, 0.490200)">
                                    <mask id="mask-18" fill="white">
                                        <use xlink:href="#path-17"></use>
                                    </mask>
                                    <g id="Clip-2"></g>
                                    <path d="M16.5372,1.9024 L19.9092,12.3544 C19.9872,12.5904 20.2012,12.7464 20.4472,12.7464 L31.4312,12.7224 C31.6812,12.7224 31.8932,12.8784 31.9712,13.1144 C32.0492,13.3544 31.9672,13.6044 31.7632,13.7464 L22.8692,20.1864 C22.6652,20.3344 22.5832,20.5824 22.6632,20.8204 L26.0772,31.2564 C26.1552,31.4944 26.0732,31.7444 25.8692,31.8884 C25.6692,32.0364 25.4052,32.0364 25.2052,31.8884 L16.3292,25.4184 C16.1312,25.2704 15.8652,25.2704 15.6652,25.4184 L6.7952,31.8884 C6.5912,32.0364 6.3292,32.0364 6.1272,31.8884 C5.9272,31.7444 5.8452,31.4944 5.9232,31.2564 L9.3372,20.8204 C9.4152,20.5824 9.3332,20.3344 9.1312,20.1864 L0.2332,13.7464 C0.0332,13.6044 -0.0488,13.3544 0.0292,13.1144 C0.1032,12.8784 0.3152,12.7224 0.5692,12.7244 L11.5492,12.7464 C11.7992,12.7464 12.0092,12.5904 12.0872,12.3544 L15.4632,1.9024 C15.5372,1.6664 15.7472,1.5124 15.9972,1.5104 C16.2472,1.5104 16.4592,1.6664 16.5372,1.9024" id="Fill-1" fill="#F89B1F" mask="url(#mask-18)"></path>
                                </g>
                                <g id="Group-6" transform="translate(0.000000, 0.490200)">
                                    <mask id="mask-20" fill="white">
                                        <use xlink:href="#path-19"></use>
                                    </mask>
                                    <g id="Clip-5"></g>
                                    <path d="M16.0058,1.5098 L16.0058,17.1458 L20.0378,12.7458 L20.4278,12.7458 L20.4358,12.7458 L20.4478,12.7458 L31.4318,12.7218 L31.4438,12.7218 C31.6898,12.7278 31.8878,12.8798 31.9658,13.1098 L16.9198,17.9278 L22.5338,20.4258 L22.6538,20.7978 L22.6578,20.8078 L22.6618,20.8198 L26.0758,31.2558 L26.0798,31.2678 L26.0798,31.2798 C26.1458,31.5098 26.0638,31.7498 25.8698,31.8878 L15.9978,18.3158 L6.1318,31.8878 L6.1278,31.8878 C5.9318,31.7478 5.8498,31.5098 5.9158,31.2798 L5.9198,31.2678 L5.9238,31.2558 L9.3378,20.8198 L9.3418,20.8078 L9.3418,20.7978 L9.4658,20.4258 L15.0758,17.9278 L0.0298,13.1098 C0.1078,12.8758 0.3178,12.7218 0.5678,12.7238 L11.5478,12.7458 L11.5598,12.7458 L11.5718,12.7458 L11.9598,12.7458 L12.0798,12.3778 L12.0838,12.3658 L12.0878,12.3538 L15.4638,1.9018 L15.4658,1.8898 L15.4698,1.8818 C15.5518,1.6578 15.7558,1.5118 15.9978,1.5098 L16.0058,1.5098 Z" id="Fill-4" fill="#FCBF15" mask="url(#mask-20)"></path>
                                </g>
                            </g>
                        </g>
                    </g>
                </g>
            </g>
        </g>
    </g>
</svg>