<?xml version="1.0" encoding="UTF-8"?>
<svg width="28px" height="28px" viewBox="0 0 28 28" version="1.1" xmlns="http://www.w3.org/2000/svg" xmlns:xlink="http://www.w3.org/1999/xlink">
    <!-- Generator: sketchtool 54.1 (76490) - https://sketchapp.com -->
    <title>C8E3CD3B-9D4F-40EF-AC47-9F44377C7599</title>
    <desc>Created with sketchtool.</desc>
    <defs>
        <polygon id="path-1" points="0 0.856 27.146 0.856 27.146 28 0 28"></polygon>
    </defs>
    <g id="Landing-page---Visite-guidée" stroke="none" stroke-width="1" fill="none" fill-rule="evenodd">
        <g id="Landing-Page---Desktop" transform="translate(-914.000000, -666.000000)">
            <g id="Group-2" transform="translate(914.000000, 664.000000)">
                <g id="icon_time">
                    <g id="Group-3" transform="translate(0.000000, 1.144400)">
                        <mask id="mask-2" fill="white">
                            <use xlink:href="#path-1"></use>
                        </mask>
                        <g id="Clip-2"></g>
                        <path d="M13.5732,28 C21.0492,28 27.1472,21.904 27.1472,14.428 C27.1472,6.952 21.0492,0.856 13.5732,0.856 C6.0972,0.856 -0.0008,6.952 -0.0008,14.428 C-0.0008,21.904 6.0972,28 13.5732,28" id="Fill-1" fill="#DBD9C7" mask="url(#mask-2)"></path>
                    </g>
                    <path d="M13.5732,4.4754 C19.6992,4.4754 24.6692,9.4454 24.6692,15.5714 C24.6692,21.6994 19.6992,26.6694 13.5732,26.6694 C7.4452,26.6694 2.4772,21.6994 2.4772,15.5714 C2.4772,9.4454 7.4452,4.4754 13.5732,4.4754" id="Fill-4" fill="#C8C6B6"></path>
                    <path d="M13.5732,4.5292 C19.6852,4.5292 24.6432,9.4872 24.6432,15.5992 C24.6432,21.7112 19.6852,26.6692 13.5732,26.6692 C7.4592,26.6692 2.5032,21.7112 2.5032,15.5992 C2.5032,9.4872 7.4592,4.5292 13.5732,4.5292" id="Fill-6" fill="#CAC8B7"></path>
                    <path d="M13.5732,4.583 C19.6712,4.583 24.6152,9.529 24.6152,15.625 C24.6152,21.725 19.6712,26.669 13.5732,26.669 C7.4752,26.669 2.5312,21.725 2.5312,15.625 C2.5312,9.529 7.4752,4.583 13.5732,4.583" id="Fill-8" fill="#CCCAB9"></path>
                    <path d="M13.5732,4.6376 C19.6552,4.6376 24.5892,9.5696 24.5892,15.6516 C24.5892,21.7356 19.6552,26.6696 13.5732,26.6696 C7.4892,26.6696 2.5572,21.7356 2.5572,15.6516 C2.5572,9.5696 7.4892,4.6376 13.5732,4.6376" id="Fill-10" fill="#CDCBBB"></path>
                    <path d="M13.5732,4.6914 C19.6412,4.6914 24.5612,9.6114 24.5612,15.6794 C24.5612,21.7474 19.6412,26.6694 13.5732,26.6694 C7.5052,26.6694 2.5832,21.7474 2.5832,15.6794 C2.5832,9.6114 7.5052,4.6914 13.5732,4.6914" id="Fill-12" fill="#CFCDBC"></path>
                    <path d="M13.5732,4.745 C19.6252,4.745 24.5352,9.655 24.5352,15.705 C24.5352,21.759 19.6252,26.669 13.5732,26.669 C7.5212,26.669 2.6112,21.759 2.6112,15.705 C2.6112,9.655 7.5212,4.745 13.5732,4.745" id="Fill-14" fill="#D1CFBE"></path>
                    <path d="M13.5732,4.7988 C19.6112,4.7988 24.5072,9.6948 24.5072,15.7328 C24.5072,21.7728 19.6112,26.6688 13.5732,26.6688 C7.5352,26.6688 2.6372,21.7728 2.6372,15.7328 C2.6372,9.6948 7.5352,4.7988 13.5732,4.7988" id="Fill-16" fill="#D2D0BF"></path>
                    <path d="M13.5732,4.8524 C19.5972,4.8524 24.4812,9.7364 24.4812,15.7604 C24.4812,21.7844 19.5972,26.6684 13.5732,26.6684 C7.5512,26.6684 2.6652,21.7844 2.6652,15.7604 C2.6652,9.7364 7.5512,4.8524 13.5732,4.8524" id="Fill-18" fill="#D4D2C1"></path>
                    <path d="M13.5732,4.9062 C19.5812,4.9062 24.4532,9.7802 24.4532,15.7862 C24.4532,21.7962 19.5812,26.6682 13.5732,26.6682 C7.5652,26.6682 2.6912,21.7962 2.6912,15.7862 C2.6912,9.7802 7.5652,4.9062 13.5732,4.9062" id="Fill-20" fill="#D6D4C2"></path>
                    <path d="M13.5732,4.9608 C19.5672,4.9608 24.4272,9.8208 24.4272,15.8148 C24.4272,21.8068 19.5672,26.6688 13.5732,26.6688 C7.5792,26.6688 2.7192,21.8068 2.7192,15.8148 C2.7192,9.8208 7.5792,4.9608 13.5732,4.9608" id="Fill-22" fill="#D8D6C4"></path>
                    <path d="M13.5732,5.0146 C19.5512,5.0146 24.4012,9.8626 24.4012,15.8406 C24.4012,21.8206 19.5512,26.6686 13.5732,26.6686 C7.5952,26.6686 2.7452,21.8206 2.7452,15.8406 C2.7452,9.8626 7.5952,5.0146 13.5732,5.0146" id="Fill-24" fill="#D9D8C6"></path>
                    <path d="M13.5732,5.0682 C19.5372,5.0682 24.3732,9.9042 24.3732,15.8682 C24.3732,21.8322 19.5372,26.6682 13.5732,26.6682 C7.6112,26.6682 2.7732,21.8322 2.7732,15.8682 C2.7732,9.9042 7.6112,5.0682 13.5732,5.0682" id="Fill-26" fill="#DBD9C7"></path>
                    <path d="M13.5732,26.6688 C7.6412,26.6688 2.8252,21.8548 2.8252,15.9208 C2.8252,9.9888 7.6412,5.1748 13.5732,5.1748 C19.5052,5.1748 24.3212,9.9888 24.3212,15.9208 C24.3212,21.8548 19.5052,26.6688 13.5732,26.6688" id="Fill-28" fill="#DEDCCB"></path>
                    <path d="M13.5732,26.6688 C7.6712,26.6688 2.8792,21.8768 2.8792,15.9748 C2.8792,10.0748 7.6712,5.2828 13.5732,5.2828 C19.4752,5.2828 24.2672,10.0748 24.2672,15.9748 C24.2672,21.8768 19.4752,26.6688 13.5732,26.6688" id="Fill-30" fill="#E1DFD0"></path>
                    <path d="M13.5732,26.6688 C7.7032,26.6688 2.9352,21.9008 2.9352,16.0288 C2.9352,10.1588 7.7032,5.3908 13.5732,5.3908 C19.4452,5.3908 24.2132,10.1588 24.2132,16.0288 C24.2132,21.9008 19.4452,26.6688 13.5732,26.6688" id="Fill-32" fill="#E3E2D4"></path>
                    <path d="M13.5732,26.6688 C7.7352,26.6688 2.9892,21.9228 2.9892,16.0828 C2.9892,10.2428 7.7352,5.4988 13.5732,5.4988 C19.4132,5.4988 24.1592,10.2428 24.1592,16.0828 C24.1592,21.9228 19.4132,26.6688 13.5732,26.6688" id="Fill-34" fill="#E6E4D8"></path>
                    <path d="M13.5732,26.6688 C7.7652,26.6688 3.0412,21.9448 3.0412,16.1368 C3.0412,10.3288 7.7652,5.6048 13.5732,5.6048 C19.3812,5.6048 24.1052,10.3288 24.1052,16.1368 C24.1052,21.9448 19.3812,26.6688 13.5732,26.6688" id="Fill-36" fill="#E9E8DD"></path>
                    <path d="M13.5732,26.6678 C7.7952,26.6678 3.0952,21.9678 3.0952,16.1918 C3.0952,10.4138 7.7952,5.7138 13.5732,5.7138 C19.3512,5.7138 24.0512,10.4138 24.0512,16.1918 C24.0512,21.9678 19.3512,26.6678 13.5732,26.6678" id="Fill-38" fill="#ECEAE1"></path>
                    <path d="M13.5732,26.6678 C7.8252,26.6678 3.1492,21.9918 3.1492,16.2458 C3.1492,10.4978 7.8252,5.8218 13.5732,5.8218 C19.3192,5.8218 23.9972,10.4978 23.9972,16.2458 C23.9972,21.9918 19.3192,26.6678 13.5732,26.6678" id="Fill-40" fill="#EFEEE6"></path>
                    <path d="M13.5732,26.6678 C7.8572,26.6678 3.2032,22.0138 3.2032,16.2978 C3.2032,10.5838 7.8572,5.9278 13.5732,5.9278 C19.2872,5.9278 23.9432,10.5838 23.9432,16.2978 C23.9432,22.0138 19.2872,26.6678 13.5732,26.6678" id="Fill-42" fill="#F2F1EB"></path>
                    <path d="M13.5732,26.6678 C7.8892,26.6678 3.2572,22.0358 3.2572,16.3518 C3.2572,10.6678 7.8892,6.0358 13.5732,6.0358 C19.2572,6.0358 23.8892,10.6678 23.8892,16.3518 C23.8892,22.0358 19.2572,26.6678 13.5732,26.6678" id="Fill-44" fill="#F5F4F0"></path>
                    <path d="M13.5732,26.6678 C7.9192,26.6678 3.3112,22.0598 3.3112,16.4058 C3.3112,10.7518 7.9192,6.1438 13.5732,6.1438 C19.2272,6.1438 23.8352,10.7518 23.8352,16.4058 C23.8352,22.0598 19.2272,26.6678 13.5732,26.6678" id="Fill-46" fill="#F9F8F6"></path>
                    <path d="M13.5732,26.6678 C19.1952,26.6678 23.7812,22.0818 23.7812,16.4598 C23.7812,10.8358 19.1952,6.2518 13.5732,6.2518 C7.9492,6.2518 3.3652,10.8358 3.3652,16.4598 C3.3652,22.0818 7.9492,26.6678 13.5732,26.6678" id="Fill-48" fill="#FEFEFE"></path>
                    <path d="M6.6786,12.0926 L6.6786,12.0926 C6.8786,11.7466 7.3246,11.6266 7.6706,11.8266 C9.5066,12.8866 11.3406,13.9466 13.1766,15.0046 L13.1766,14.0266 C13.1766,13.8106 13.3526,13.6286 13.5726,13.6286 C13.7926,13.6286 13.9706,13.8086 13.9706,14.0266 L13.9706,15.2226 C16.4286,13.8026 18.8886,12.3846 21.3486,10.9646 C21.6206,10.8066 21.9706,10.9006 22.1286,11.1726 C22.2866,11.4446 22.1906,11.7966 21.9206,11.9526 C19.2706,13.4826 16.6206,15.0126 13.9706,16.5426 L13.9706,23.4006 C13.9706,23.6206 13.7926,23.7986 13.5726,23.7986 C13.3526,23.7986 13.1766,23.6166 13.1766,23.4006 L13.1766,16.6506 C13.1106,16.6346 13.0486,16.6086 12.9866,16.5746 C10.9726,15.4106 8.9586,14.2486 6.9446,13.0866 C6.5986,12.8846 6.4786,12.4386 6.6786,12.0926" id="Fill-50" fill="#DADEE4"></path>
                    <path d="M6.6786,12.0506 L6.6786,12.0506 C6.8786,11.7046 7.3246,11.5846 7.6706,11.7846 C9.3386,12.7486 11.5086,14.0006 13.1766,14.9626 L13.1766,13.9846 C13.1766,13.7686 13.3526,13.5866 13.5726,13.5866 C13.7926,13.5866 13.9706,13.7666 13.9706,13.9846 L13.9706,15.1806 C16.2066,13.8906 19.1126,12.2126 21.3486,10.9226 C21.6206,10.7646 21.9706,10.8586 22.1286,11.1306 C22.2866,11.4026 22.1906,11.7546 21.9206,11.9106 C19.5126,13.3026 16.3786,15.1106 13.9706,16.5006 L13.9706,23.3586 C13.9706,23.5786 13.7926,23.7566 13.5726,23.7566 C13.3526,23.7566 13.1766,23.5746 13.1766,23.3586 L13.1766,16.6086 C13.1106,16.5926 13.0486,16.5666 12.9866,16.5326 C11.1566,15.4746 8.7766,14.1006 6.9446,13.0446 C6.5986,12.8426 6.4786,12.3966 6.6786,12.0506" id="Fill-52" fill="#D6DAE1"></path>
                    <path d="M6.6786,12.0086 L6.6786,12.0086 C6.8786,11.6626 7.3246,11.5426 7.6706,11.7426 C9.1726,12.6106 11.6746,14.0546 13.1766,14.9206 L13.1766,13.9426 C13.1766,13.7266 13.3526,13.5446 13.5726,13.5446 C13.7926,13.5446 13.9706,13.7246 13.9706,13.9426 L13.9706,15.1386 C15.9826,13.9786 19.3366,12.0426 21.3486,10.8806 C21.6206,10.7226 21.9706,10.8166 22.1286,11.0886 C22.2866,11.3606 22.1906,11.7126 21.9206,11.8686 C19.7526,13.1206 16.1386,15.2066 13.9706,16.4586 L13.9706,23.3166 C13.9706,23.5366 13.7926,23.7146 13.5726,23.7146 C13.3526,23.7146 13.1766,23.5326 13.1766,23.3166 L13.1766,16.5666 C13.1106,16.5506 13.0486,16.5246 12.9866,16.4906 C11.3386,15.5386 8.5926,13.9526 6.9446,13.0026 C6.5986,12.8006 6.4786,12.3546 6.6786,12.0086" id="Fill-54" fill="#D1D6DD"></path>
                    <path d="M6.6786,11.9676 L6.6786,11.9676 C6.8786,11.6216 7.3246,11.5016 7.6706,11.7016 C9.0066,12.4716 11.8406,14.1096 13.1766,14.8796 L13.1766,13.9016 C13.1766,13.6856 13.3526,13.5036 13.5726,13.5036 C13.7926,13.5036 13.9706,13.6836 13.9706,13.9016 L13.9706,15.0976 C15.7586,14.0656 19.5606,11.8716 21.3486,10.8396 C21.6206,10.6816 21.9706,10.7756 22.1286,11.0476 C22.2866,11.3196 22.1906,11.6716 21.9206,11.8276 C19.9926,12.9396 15.8966,15.3036 13.9706,16.4176 L13.9706,23.2756 C13.9706,23.4956 13.7926,23.6736 13.5726,23.6736 C13.3526,23.6736 13.1766,23.4916 13.1766,23.2756 L13.1766,16.5256 C13.1106,16.5096 13.0486,16.4836 12.9866,16.4496 C11.5226,15.6016 8.4106,13.8056 6.9446,12.9616 C6.5986,12.7596 6.4786,12.3136 6.6786,11.9676" id="Fill-56" fill="#CDD2DA"></path>
                    <path d="M6.6786,11.9256 L6.6786,11.9256 C6.8786,11.5796 7.3246,11.4596 7.6706,11.6596 C8.8386,12.3336 12.0086,14.1636 13.1766,14.8376 L13.1766,13.8596 C13.1766,13.6436 13.3526,13.4616 13.5726,13.4616 C13.7926,13.4616 13.9706,13.6416 13.9706,13.8596 L13.9706,15.0556 C15.5346,14.1516 19.7846,11.6996 21.3486,10.7976 C21.6206,10.6396 21.9706,10.7336 22.1286,11.0056 C22.2866,11.2776 22.1906,11.6296 21.9206,11.7856 C20.2346,12.7596 15.6566,15.4016 13.9706,16.3756 L13.9706,23.2336 C13.9706,23.4536 13.7926,23.6316 13.5726,23.6316 C13.3526,23.6316 13.1766,23.4496 13.1766,23.2336 L13.1766,16.4836 C13.1106,16.4676 13.0486,16.4416 12.9866,16.4076 C11.7046,15.6676 8.2266,13.6576 6.9446,12.9196 C6.5986,12.7176 6.4786,12.2716 6.6786,11.9256" id="Fill-58" fill="#C8CED7"></path>
                    <path d="M6.6786,11.8836 L6.6786,11.8836 C6.8786,11.5376 7.3246,11.4176 7.6706,11.6176 C8.6726,12.1956 12.1746,14.2176 13.1766,14.7956 L13.1766,13.8176 C13.1766,13.6016 13.3526,13.4196 13.5726,13.4196 C13.7926,13.4196 13.9706,13.5996 13.9706,13.8176 L13.9706,15.0136 C15.3106,14.2396 20.0086,11.5296 21.3486,10.7556 C21.6206,10.5976 21.9706,10.6916 22.1286,10.9636 C22.2866,11.2356 22.1906,11.5876 21.9206,11.7436 C20.4746,12.5796 15.4166,15.4996 13.9706,16.3336 L13.9706,23.1916 C13.9706,23.4116 13.7926,23.5896 13.5726,23.5896 C13.3526,23.5896 13.1766,23.4076 13.1766,23.1916 L13.1766,16.4416 C13.1106,16.4256 13.0486,16.3996 12.9866,16.3656 C11.8886,15.7296 8.0446,13.5096 6.9446,12.8776 C6.5986,12.6756 6.4786,12.2296 6.6786,11.8836" id="Fill-60" fill="#C4CBD3"></path>
                    <path d="M6.6786,11.8416 L6.6786,11.8416 C6.8786,11.4956 7.3246,11.3756 7.6706,11.5756 C8.5046,12.0576 12.3426,14.2716 13.1766,14.7536 L13.1766,13.7756 C13.1766,13.5596 13.3526,13.3776 13.5726,13.3776 C13.7926,13.3776 13.9706,13.5576 13.9706,13.7756 L13.9706,14.9716 C15.0886,14.3276 20.2306,11.3576 21.3486,10.7136 C21.6206,10.5556 21.9706,10.6496 22.1286,10.9216 C22.2866,11.1936 22.1906,11.5456 21.9206,11.7016 C20.7166,12.3976 15.1746,15.5956 13.9706,16.2916 L13.9706,23.1496 C13.9706,23.3696 13.7926,23.5476 13.5726,23.5476 C13.3526,23.5476 13.1766,23.3656 13.1766,23.1496 L13.1766,16.3996 C13.1106,16.3836 13.0486,16.3576 12.9866,16.3236 C12.0706,15.7956 7.8606,13.3636 6.9446,12.8356 C6.5986,12.6336 6.4786,12.1876 6.6786,11.8416" id="Fill-62" fill="#C0C7D1"></path>
                    <path d="M6.6786,11.7998 L6.6786,11.7998 C6.8786,11.4538 7.3246,11.3338 7.6706,11.5338 C8.3386,11.9198 12.5086,14.3278 13.1766,14.7118 L13.1766,13.7338 C13.1766,13.5178 13.3526,13.3358 13.5726,13.3358 C13.7926,13.3358 13.9706,13.5158 13.9706,13.7338 L13.9706,14.9298 C14.8646,14.4158 20.4546,11.1878 21.3486,10.6718 C21.6206,10.5138 21.9706,10.6078 22.1286,10.8798 C22.2866,11.1518 22.1906,11.5038 21.9206,11.6598 C20.9566,12.2158 14.9346,15.6938 13.9706,16.2498 L13.9706,23.1078 C13.9706,23.3278 13.7926,23.5058 13.5726,23.5058 C13.3526,23.5058 13.1766,23.3238 13.1766,23.1078 L13.1766,16.3578 C13.1106,16.3418 13.0486,16.3158 12.9866,16.2818 C12.2546,15.8578 7.6786,13.2158 6.9446,12.7938 C6.5986,12.5918 6.4786,12.1458 6.6786,11.7998" id="Fill-64" fill="#BCC4CD"></path>
                    <path d="M6.6786,11.7578 L6.6786,11.7578 C6.8786,11.4118 7.3246,11.2918 7.6706,11.4918 C8.1706,11.7818 12.6766,14.3818 13.1766,14.6698 L13.1766,13.6918 C13.1766,13.4758 13.3526,13.2938 13.5726,13.2938 C13.7926,13.2938 13.9706,13.4738 13.9706,13.6918 L13.9706,14.8878 C14.6406,14.5018 20.6786,11.0158 21.3486,10.6298 C21.6206,10.4718 21.9706,10.5658 22.1286,10.8378 C22.2866,11.1098 22.1906,11.4618 21.9206,11.6178 C21.1966,12.0358 14.6926,15.7918 13.9706,16.2078 L13.9706,23.0658 C13.9706,23.2858 13.7926,23.4638 13.5726,23.4638 C13.3526,23.4638 13.1766,23.2818 13.1766,23.0658 L13.1766,16.3158 C13.1106,16.2998 13.0486,16.2738 12.9866,16.2398 C12.4366,15.9238 7.4946,13.0678 6.9446,12.7518 C6.5986,12.5498 6.4786,12.1038 6.6786,11.7578" id="Fill-66" fill="#B8C0CA"></path>
                    <path d="M6.6786,11.7166 L6.6786,11.7166 C6.8786,11.3706 7.3246,11.2506 7.6706,11.4506 C8.0046,11.6426 12.8426,14.4366 13.1766,14.6286 L13.1766,13.6506 C13.1766,13.4346 13.3526,13.2526 13.5726,13.2526 C13.7926,13.2526 13.9706,13.4326 13.9706,13.6506 L13.9706,14.8466 C14.4186,14.5886 20.9006,10.8446 21.3486,10.5886 C21.6206,10.4306 21.9706,10.5246 22.1286,10.7966 C22.2866,11.0686 22.1906,11.4206 21.9206,11.5766 C21.4386,11.8546 14.4526,15.8886 13.9706,16.1666 L13.9706,23.0246 C13.9706,23.2446 13.7926,23.4226 13.5726,23.4226 C13.3526,23.4226 13.1766,23.2406 13.1766,23.0246 L13.1766,16.2746 C13.1106,16.2586 13.0486,16.2326 12.9866,16.1986 C12.6206,15.9866 7.3106,12.9206 6.9446,12.7106 C6.5986,12.5086 6.4786,12.0626 6.6786,11.7166" id="Fill-68" fill="#B3BDC7"></path>
                    <path d="M6.6786,11.6748 L6.6786,11.6748 C6.8786,11.3288 7.3246,11.2088 7.6706,11.4088 C7.8386,11.5048 13.0086,14.4908 13.1766,14.5868 L13.1766,13.6088 C13.1766,13.3928 13.3526,13.2108 13.5726,13.2108 C13.7926,13.2108 13.9706,13.3908 13.9706,13.6088 L13.9706,14.8048 C14.1946,14.6768 21.1246,10.6748 21.3486,10.5468 C21.6206,10.3888 21.9706,10.4828 22.1286,10.7548 C22.2866,11.0268 22.1906,11.3788 21.9206,11.5348 C21.6786,11.6748 14.2126,15.9848 13.9706,16.1248 L13.9706,22.9828 C13.9706,23.2028 13.7926,23.3808 13.5726,23.3808 C13.3526,23.3808 13.1766,23.1988 13.1766,22.9828 L13.1766,16.2328 C13.1106,16.2168 13.0486,16.1908 12.9866,16.1568 C12.8046,16.0508 7.1286,12.7728 6.9446,12.6688 C6.5986,12.4668 6.4786,12.0208 6.6786,11.6748" id="Fill-70" fill="#AFB9C4"></path>
                    <path d="M6.6786,11.6328 L6.6786,11.6328 C6.8786,11.2868 7.3246,11.1668 7.6706,11.3668 L13.1766,14.5448 L13.1766,13.5668 C13.1766,13.3508 13.3526,13.1688 13.5726,13.1688 C13.7926,13.1688 13.9706,13.3488 13.9706,13.5668 L13.9706,14.7628 L21.3486,10.5048 C21.6206,10.3468 21.9706,10.4408 22.1286,10.7128 C22.2866,10.9848 22.1906,11.3368 21.9206,11.4928 L13.9706,16.0828 L13.9706,22.9408 C13.9706,23.1608 13.7926,23.3388 13.5726,23.3388 C13.3526,23.3388 13.1766,23.1568 13.1766,22.9408 L13.1766,16.1908 C13.1106,16.1748 13.0486,16.1488 12.9866,16.1148 L6.9446,12.6268 C6.5986,12.4248 6.4786,11.9788 6.6786,11.6328" id="Fill-72" fill="#ABB6C1"></path>
                    <path d="M6.6786,11.5526 L6.6786,11.5526 C6.8786,11.2066 7.3246,11.0866 7.6706,11.2866 L13.7146,14.7766 C14.0606,14.9746 14.1786,15.4226 13.9786,15.7666 C13.7786,16.1146 13.3326,16.2326 12.9866,16.0326 L6.9446,12.5466 C6.5986,12.3446 6.4786,11.8986 6.6786,11.5526" id="Fill-74" fill="#0E303F"></path>
                    <path d="M22.1288,10.6318 L22.1288,10.6318 C22.2868,10.9058 22.1908,11.2558 21.9208,11.4138 L13.9348,16.0238 C13.6648,16.1798 13.3108,16.0858 13.1548,15.8138 C12.9988,15.5418 13.0908,15.1898 13.3628,15.0338 L21.3488,10.4238 C21.6208,10.2658 21.9708,10.3598 22.1288,10.6318" id="Fill-76" fill="#0E303F"></path>
                    <path d="M13.1756,23.1942 L13.1756,13.4862 C13.1756,13.2702 13.3536,13.0882 13.5736,13.0882 C13.7916,13.0882 13.9696,13.2682 13.9696,13.4862 L13.9696,23.1942 C13.9696,23.7202 13.1756,23.7182 13.1756,23.1942" id="Fill-78" fill="#EF5661"></path>
                    <path d="M13.5732,14.1864 C14.3372,14.1864 14.9572,14.8084 14.9572,15.5724 C14.9572,16.3364 14.3372,16.9584 13.5732,16.9584 C12.8072,16.9584 12.1892,16.3364 12.1892,15.5724 C12.1892,14.8084 12.8072,14.1864 13.5732,14.1864" id="Fill-80" fill="#EF5661"></path>
                    <path d="M13.5732,5.164 C13.9972,5.164 14.3412,5.508 14.3412,5.932 C14.3412,6.358 13.9972,6.702 13.5732,6.702 C13.1492,6.702 12.8052,6.358 12.8052,5.932 C12.8052,5.508 13.1492,5.164 13.5732,5.164 M3.1652,15.572 C3.1652,15.148 3.5092,14.804 3.9332,14.804 C4.3572,14.804 4.7012,15.148 4.7012,15.572 C4.7012,15.996 4.3572,16.34 3.9332,16.34 C3.5092,16.34 3.1652,15.996 3.1652,15.572 M23.9812,15.572 C23.9812,15.998 23.6372,16.34 23.2132,16.34 C22.7872,16.34 22.4452,15.998 22.4452,15.572 C22.4452,15.148 22.7872,14.804 23.2132,14.804 C23.6372,14.804 23.9812,15.148 23.9812,15.572 M13.5732,25.98 C13.1492,25.98 12.8052,25.636 12.8052,25.212 C12.8052,24.788 13.1492,24.444 13.5732,24.444 C13.9972,24.444 14.3412,24.788 14.3412,25.212 C14.3412,25.636 13.9972,25.98 13.5732,25.98" id="Fill-82" fill="#123E52"></path>
                </g>
            </g>
        </g>
    </g>
</svg>