<?xml version="1.0" encoding="UTF-8"?>
<svg width="27px" height="25px" viewBox="0 0 27 25" version="1.1" xmlns="http://www.w3.org/2000/svg" xmlns:xlink="http://www.w3.org/1999/xlink">
    <!-- Generator: sketchtool 54.1 (76490) - https://sketchapp.com -->
    <title>5BE2CBC0-C433-4808-B3CD-2DA06FE762EF</title>
    <desc>Created with sketchtool.</desc>
    <defs>
        <polygon id="path-1" points="0 1.124 26.366 1.124 26.366 26 0 26"></polygon>
        <polygon id="path-3" points="0.851 0.4834 6.366 0.4834 6.366 5.9994 0.851 5.9994"></polygon>
        <polygon id="path-5" points="0 1.124 26.366 1.124 26.366 7.582 0 7.582"></polygon>
        <polygon id="path-7" points="0.851 0.4834 6.366 0.4834 6.366 5.9994 0.851 5.9994"></polygon>
    </defs>
    <g id="Landing-page---Visite-guidée" stroke="none" stroke-width="1" fill="none" fill-rule="evenodd">
        <g id="Landing-Page---Desktop" transform="translate(-730.000000, -2784.000000)">
            <g id="Group-14" transform="translate(0.000000, 2396.000000)">
                <g id="Group-17" transform="translate(730.000000, 386.000000)">
                    <g id="icon_calendar">
                        <g id="Group-3" transform="translate(0.000000, 0.876000)">
                            <mask id="mask-2" fill="white">
                                <use xlink:href="#path-1"></use>
                            </mask>
                            <g id="Clip-2"></g>
                            <path d="M1.9296,1.124 L24.4376,1.124 C25.4996,1.124 26.3676,1.998 26.3676,3.052 L26.3676,24.07 C26.3676,25.126 25.4936,26 24.4376,26 L1.9296,26 C0.8736,26 -0.0004,25.132 -0.0004,24.07 L-0.0004,3.052 C-0.0004,1.992 0.8676,1.124 1.9296,1.124" id="Fill-1" fill="#E5E6E7" mask="url(#mask-2)"></path>
                        </g>
                        <g id="Group-6" transform="translate(20.000000, 20.876000)">
                            <mask id="mask-4" fill="white">
                                <use xlink:href="#path-3"></use>
                            </mask>
                            <g id="Clip-5"></g>
                            <path d="M6.367,0.4834 L6.367,4.0694 C6.367,5.1254 5.493,5.9994 4.437,5.9994 L0.851,5.9994 L6.367,0.4834 Z" id="Fill-4" fill="#C8C6B6" mask="url(#mask-4)"></path>
                        </g>
                        <g id="Group-9" transform="translate(0.000000, 0.876000)">
                            <mask id="mask-6" fill="white">
                                <use xlink:href="#path-5"></use>
                            </mask>
                            <g id="Clip-8"></g>
                            <path d="M1.9296,1.124 L24.4376,1.124 C25.4996,1.124 26.3676,1.998 26.3676,3.052 L26.3676,7.582 L-0.0004,7.582 L-0.0004,3.052 C-0.0004,1.992 0.8676,1.124 1.9296,1.124" id="Fill-7" fill="#EF5661" mask="url(#mask-6)"></path>
                        </g>
                        <path d="M16.203,21.924 C15.789,21.924 15.415,21.864 15.077,21.74 C14.737,21.618 14.451,21.442 14.211,21.21 C13.979,20.988 13.801,20.724 13.679,20.416 C13.559,20.108 13.499,19.786 13.499,19.442 C13.499,18.994 13.619,18.58 13.859,18.202 C14.099,17.824 14.447,17.524 14.903,17.302 L14.903,17.268 C14.495,17.03 14.191,16.77 13.995,16.488 C13.797,16.206 13.699,15.85 13.699,15.428 C13.699,14.804 13.935,14.284 14.407,13.868 C14.877,13.45 15.477,13.242 16.203,13.242 C16.957,13.242 17.563,13.44 18.019,13.838 C18.473,14.232 18.701,14.738 18.701,15.356 C18.701,15.728 18.593,16.096 18.375,16.46 C18.159,16.824 17.843,17.108 17.435,17.314 L17.435,17.344 C17.917,17.574 18.285,17.848 18.535,18.172 C18.783,18.496 18.907,18.912 18.907,19.42 C18.907,20.132 18.651,20.726 18.133,21.204 C17.619,21.684 16.975,21.924 16.203,21.924 L16.203,21.924 Z M17.763,19.526 C17.763,19.184 17.697,18.914 17.563,18.712 C17.429,18.512 17.169,18.306 16.787,18.098 C16.661,18.03 16.493,17.954 16.283,17.87 C16.073,17.79 15.835,17.692 15.573,17.582 C15.265,17.784 15.029,18.036 14.865,18.336 C14.701,18.636 14.619,18.976 14.619,19.36 C14.619,19.862 14.773,20.274 15.075,20.602 C15.377,20.93 15.757,21.092 16.213,21.092 C16.683,21.092 17.057,20.952 17.339,20.672 C17.623,20.39 17.763,20.01 17.763,19.526 L17.763,19.526 Z M17.609,15.368 C17.609,14.996 17.485,14.684 17.237,14.436 C16.987,14.186 16.639,14.064 16.197,14.064 C15.791,14.064 15.461,14.174 15.203,14.398 C14.943,14.62 14.813,14.922 14.813,15.3 C14.813,15.576 14.879,15.808 15.011,15.996 C15.143,16.186 15.341,16.358 15.605,16.51 C15.721,16.574 15.897,16.66 16.131,16.774 C16.369,16.884 16.583,16.97 16.779,17.034 C17.101,16.786 17.321,16.53 17.435,16.268 C17.553,16.006 17.609,15.706 17.609,15.368 L17.609,15.368 Z M12.585,21.734 L7.459,21.734 L7.459,20.57 C7.829,20.218 8.177,19.884 8.503,19.564 C8.831,19.246 9.151,18.914 9.461,18.568 C10.095,17.874 10.525,17.316 10.753,16.898 C10.985,16.48 11.101,16.048 11.101,15.602 C11.101,15.37 11.065,15.168 10.993,14.994 C10.921,14.818 10.821,14.674 10.693,14.56 C10.565,14.448 10.413,14.364 10.243,14.308 C10.071,14.254 9.883,14.224 9.679,14.224 C9.483,14.224 9.285,14.25 9.081,14.3 C8.877,14.35 8.683,14.412 8.497,14.488 C8.341,14.55 8.191,14.626 8.047,14.716 C7.903,14.804 7.785,14.882 7.695,14.944 L7.633,14.944 L7.633,13.762 C7.865,13.646 8.185,13.534 8.595,13.424 C9.005,13.314 9.397,13.26 9.763,13.26 C10.537,13.26 11.143,13.466 11.581,13.876 C12.021,14.288 12.239,14.842 12.239,15.546 C12.239,15.868 12.201,16.168 12.125,16.444 C12.049,16.718 11.943,16.972 11.809,17.206 C11.671,17.448 11.505,17.688 11.315,17.926 C11.119,18.164 10.915,18.398 10.699,18.628 C10.351,19.008 9.961,19.402 9.531,19.81 C9.103,20.218 8.761,20.544 8.503,20.782 L12.585,20.782 L12.585,21.734 Z" id="Fill-10" fill="#163233"></path>
                        <path d="M19.7606,4.5684 L18.5686,7.6024 L18.1706,7.6024 L18.5666,6.6784 L17.7606,4.5684 L18.1646,4.5684 L18.7686,6.2104 L19.3726,4.5684 L19.7606,4.5684 Z M17.1526,6.5484 C17.1226,6.5704 17.0826,6.6024 17.0306,6.6424 C16.9806,6.6824 16.9306,6.7164 16.8826,6.7384 C16.8166,6.7744 16.7546,6.8004 16.6906,6.8184 C16.6306,6.8364 16.5446,6.8464 16.4326,6.8464 C16.3426,6.8464 16.2546,6.8284 16.1726,6.7944 C16.0926,6.7604 16.0186,6.7124 15.9566,6.6504 C15.8966,6.5884 15.8486,6.5144 15.8146,6.4244 C15.7786,6.3344 15.7606,6.2404 15.7606,6.1424 C15.7606,5.9884 15.7926,5.8584 15.8566,5.7504 C15.9226,5.6424 16.0246,5.5564 16.1646,5.4924 C16.2886,5.4364 16.4366,5.3964 16.6046,5.3744 C16.7746,5.3524 16.9566,5.3364 17.1526,5.3264 L17.1526,5.2544 C17.1526,5.1684 17.1386,5.0964 17.1126,5.0424 C17.0866,4.9884 17.0506,4.9484 17.0026,4.9184 C16.9546,4.8884 16.8966,4.8684 16.8286,4.8604 C16.7586,4.8484 16.6866,4.8444 16.6146,4.8444 C16.5306,4.8444 16.4286,4.8564 16.3126,4.8824 C16.1946,4.9084 16.0806,4.9464 15.9626,4.9944 L15.9406,4.9944 L15.9406,4.6144 C16.0106,4.5964 16.1086,4.5744 16.2366,4.5504 C16.3646,4.5264 16.4926,4.5144 16.6186,4.5144 C16.7686,4.5144 16.8986,4.5264 17.0026,4.5504 C17.1066,4.5744 17.2006,4.6164 17.2846,4.6804 C17.3646,4.7404 17.4246,4.8184 17.4646,4.9144 C17.5046,5.0124 17.5226,5.1304 17.5226,5.2684 L17.5226,6.7844 L17.1526,6.7844 L17.1526,6.5484 Z M17.1526,6.2384 L17.1526,5.6224 C17.0626,5.6304 16.9526,5.6424 16.8166,5.6544 C16.6806,5.6704 16.5726,5.6904 16.4886,5.7144 C16.3886,5.7444 16.3066,5.7924 16.2426,5.8544 C16.1766,5.9164 16.1446,6.0044 16.1446,6.1164 C16.1446,6.2444 16.1806,6.3404 16.2526,6.4044 C16.3246,6.4704 16.4286,6.5024 16.5646,6.5024 C16.6826,6.5024 16.7906,6.4784 16.8866,6.4264 C16.9806,6.3744 17.0686,6.3124 17.1526,6.2384 L17.1526,6.2384 Z M15.0026,6.2444 L15.0026,4.9684 C14.9106,4.9224 14.8286,4.8924 14.7546,4.8744 C14.6806,4.8584 14.6006,4.8484 14.5146,4.8484 C14.3226,4.8484 14.1726,4.9204 14.0646,5.0644 C13.9566,5.2064 13.9006,5.4144 13.9006,5.6864 C13.9006,5.9464 13.9446,6.1464 14.0286,6.2844 C14.1106,6.4224 14.2446,6.4904 14.4266,6.4904 C14.5246,6.4904 14.6246,6.4684 14.7226,6.4244 C14.8226,6.3804 14.9166,6.3204 15.0026,6.2444 L15.0026,6.2444 Z M15.3766,6.7844 L15.0026,6.7844 L15.0026,6.5584 C14.9446,6.6084 14.8946,6.6484 14.8526,6.6784 C14.8106,6.7104 14.7606,6.7404 14.7046,6.7664 C14.6506,6.7924 14.5946,6.8104 14.5406,6.8244 C14.4826,6.8384 14.4166,6.8464 14.3406,6.8464 C14.2186,6.8464 14.1086,6.8204 14.0066,6.7704 C13.9046,6.7204 13.8166,6.6464 13.7446,6.5504 C13.6726,6.4524 13.6166,6.3324 13.5766,6.1884 C13.5366,6.0444 13.5166,5.8804 13.5166,5.6924 C13.5166,5.4984 13.5426,5.3304 13.5926,5.1884 C13.6426,5.0464 13.7126,4.9224 13.8006,4.8184 C13.8826,4.7204 13.9786,4.6444 14.0946,4.5904 C14.2086,4.5344 14.3286,4.5064 14.4546,4.5064 C14.5646,4.5064 14.6606,4.5204 14.7426,4.5444 C14.8246,4.5684 14.9126,4.6064 15.0026,4.6584 L15.0026,3.6964 L15.3766,3.6964 L15.3766,6.7844 Z M13.1466,6.7844 L12.7726,6.7844 L12.7726,5.5224 C12.7726,5.4204 12.7686,5.3264 12.7586,5.2384 C12.7486,5.1504 12.7286,5.0784 12.7026,5.0264 C12.6726,4.9704 12.6286,4.9304 12.5746,4.9024 C12.5206,4.8764 12.4466,4.8624 12.3526,4.8624 C12.2606,4.8624 12.1646,4.8884 12.0646,4.9364 C11.9686,4.9864 11.8706,5.0504 11.7766,5.1304 L11.7766,6.7844 L11.4046,6.7844 L11.4046,4.5684 L11.7766,4.5684 L11.7766,4.8144 C11.8866,4.7164 11.9986,4.6404 12.1066,4.5864 C12.2146,4.5344 12.3306,4.5064 12.4506,4.5064 C12.6686,4.5064 12.8386,4.5804 12.9626,4.7224 C13.0846,4.8664 13.1466,5.0744 13.1466,5.3464 L13.1466,6.7844 Z M10.8646,6.7844 L10.4926,6.7844 L10.4926,6.5384 C10.3766,6.6384 10.2666,6.7164 10.1646,6.7684 C10.0606,6.8184 9.9466,6.8464 9.8206,6.8464 C9.7226,6.8464 9.6326,6.8304 9.5466,6.7984 C9.4626,6.7664 9.3866,6.7164 9.3226,6.6484 C9.2606,6.5784 9.2106,6.4924 9.1766,6.3884 C9.1406,6.2824 9.1226,6.1564 9.1226,6.0064 L9.1226,4.5684 L9.4966,4.5684 L9.4966,5.8304 C9.4966,5.9464 9.5006,6.0464 9.5086,6.1244 C9.5166,6.2004 9.5386,6.2684 9.5666,6.3264 C9.5966,6.3844 9.6386,6.4244 9.6906,6.4504 C9.7446,6.4784 9.8186,6.4904 9.9166,6.4904 C10.0086,6.4904 10.1046,6.4644 10.2086,6.4144 C10.3106,6.3624 10.4066,6.2984 10.4926,6.2224 L10.4926,4.5684 L10.8646,4.5684 L10.8646,6.7844 Z M7.7286,6.8384 C7.5146,6.8384 7.3326,6.8164 7.1826,6.7724 C7.0326,6.7264 6.8906,6.6724 6.7586,6.6084 L6.7586,6.1164 L6.7866,6.1164 C6.9166,6.2384 7.0626,6.3324 7.2266,6.3984 C7.3886,6.4644 7.5486,6.4984 7.7006,6.4984 C7.9186,6.4984 8.0826,6.4524 8.1926,6.3624 C8.3026,6.2724 8.3586,6.1524 8.3586,6.0044 C8.3586,5.8884 8.3306,5.7904 8.2726,5.7184 C8.2126,5.6444 8.1206,5.5884 7.9926,5.5524 C7.9026,5.5264 7.8186,5.5044 7.7446,5.4864 C7.6686,5.4704 7.5746,5.4464 7.4606,5.4184 C7.3586,5.3924 7.2666,5.3584 7.1866,5.3164 C7.1066,5.2764 7.0346,5.2224 6.9726,5.1544 C6.9106,5.0904 6.8646,5.0144 6.8306,4.9264 C6.7966,4.8384 6.7806,4.7364 6.7806,4.6224 C6.7806,4.3824 6.8726,4.1824 7.0586,4.0204 C7.2466,3.8584 7.4846,3.7764 7.7746,3.7764 C7.9386,3.7764 8.0946,3.7944 8.2426,3.8264 C8.3906,3.8604 8.5266,3.9064 8.6526,3.9684 L8.6526,4.4384 L8.6226,4.4384 C8.5286,4.3524 8.4086,4.2764 8.2626,4.2124 C8.1166,4.1484 7.9626,4.1164 7.8006,4.1164 C7.6186,4.1164 7.4686,4.1584 7.3586,4.2444 C7.2446,4.3304 7.1886,4.4424 7.1886,4.5804 C7.1886,4.7064 7.2226,4.8064 7.2886,4.8804 C7.3546,4.9544 7.4506,5.0084 7.5746,5.0424 C7.6586,5.0664 7.7606,5.0904 7.8826,5.1184 C8.0026,5.1484 8.1006,5.1744 8.1806,5.1964 C8.3846,5.2584 8.5326,5.3544 8.6286,5.4784 C8.7206,5.6044 8.7666,5.7584 8.7666,5.9424 C8.7666,6.0584 8.7446,6.1724 8.6966,6.2844 C8.6506,6.3964 8.5846,6.4924 8.5006,6.5704 C8.4046,6.6544 8.2986,6.7224 8.1766,6.7684 C8.0586,6.8144 7.9086,6.8384 7.7286,6.8384 L7.7286,6.8384 Z" id="Fill-12" fill="#FEFEFE"></path>
                        <g id="Group-16" transform="translate(20.000000, 20.876000)">
                            <mask id="mask-8" fill="white">
                                <use xlink:href="#path-7"></use>
                            </mask>
                            <g id="Clip-15"></g>
                            <path d="M6.367,0.4834 L2.779,0.4834 C1.725,0.4834 0.851,1.3574 0.851,2.4134 L0.851,5.9994 L6.367,0.4834 Z" id="Fill-14" fill="#DBD9C7" mask="url(#mask-8)"></path>
                        </g>
                        <path d="M1.911,7.8604 C2.303,7.8604 2.623,7.5404 2.623,7.1484 C2.623,6.7544 2.303,6.4344 1.911,6.4344 C1.519,6.4344 1.199,6.7544 1.199,7.1484 C1.199,7.5404 1.519,7.8604 1.911,7.8604" id="Fill-17" fill="#BE202E"></path>
                        <path d="M1.911,10.5372 C2.303,10.5372 2.623,10.2172 2.623,9.8252 C2.623,9.4332 2.303,9.1132 1.911,9.1132 C1.519,9.1132 1.199,9.4332 1.199,9.8252 C1.199,10.2172 1.519,10.5372 1.911,10.5372" id="Fill-19" fill="#C8C6B6"></path>
                        <path d="M1.911,6.7726 L1.911,6.7726 C2.153,6.7726 2.351,6.9706 2.351,7.2126 L2.351,9.7026 C2.351,9.9446 2.153,10.1426 1.911,10.1426 C1.669,10.1426 1.471,9.9446 1.471,9.7026 L1.471,7.2126 C1.471,6.9706 1.669,6.7726 1.911,6.7726" id="Fill-21" fill="#0E303F"></path>
                        <path d="M24.457,7.8604 C24.849,7.8604 25.169,7.5404 25.169,7.1484 C25.169,6.7544 24.849,6.4344 24.457,6.4344 C24.065,6.4344 23.745,6.7544 23.745,7.1484 C23.745,7.5404 24.065,7.8604 24.457,7.8604" id="Fill-23" fill="#BE202E"></path>
                        <path d="M24.457,10.5372 C24.849,10.5372 25.169,10.2172 25.169,9.8252 C25.169,9.4332 24.849,9.1132 24.457,9.1132 C24.065,9.1132 23.745,9.4332 23.745,9.8252 C23.745,10.2172 24.065,10.5372 24.457,10.5372" id="Fill-25" fill="#C8C6B6"></path>
                        <path d="M24.457,6.7726 L24.457,6.7726 C24.699,6.7726 24.897,6.9706 24.897,7.2126 L24.897,9.7026 C24.897,9.9446 24.699,10.1426 24.457,10.1426 C24.215,10.1426 24.017,9.9446 24.017,9.7026 L24.017,7.2126 C24.017,6.9706 24.215,6.7726 24.457,6.7726" id="Fill-27" fill="#0E303F"></path>
                    </g>
                </g>
            </g>
        </g>
    </g>
</svg>