<?xml version="1.0" encoding="UTF-8"?>
<svg width="32px" height="30px" viewBox="0 0 32 30" version="1.1" xmlns="http://www.w3.org/2000/svg" xmlns:xlink="http://www.w3.org/1999/xlink">
    <!-- Generator: sketchtool 54.1 (76490) - https://sketchapp.com -->
    <title>CB8A4FA8-DE2C-40FA-BC00-AD5255D5538E</title>
    <desc>Created with sketchtool.</desc>
    <g id="Landing-page---Visite-guidée" stroke="none" stroke-width="1" fill="none" fill-rule="evenodd">
        <g id="Landing-Page---Desktop" transform="translate(-679.000000, -665.000000)" fill-rule="nonzero">
            <g id="Group-5" transform="translate(679.000000, 665.000000)">
                <g id="icon_flag_france">
                    <path d="M11.375,22.6035565 L1.6,22.6035565 C1.3,22.6035565 1.0625,22.3587866 1.0625,22.0638075 L1.0625,2.78974895 C1.0625,2.48849372 1.30625,2.25 1.6,2.25 L11.375,2.25 L11.375,22.6035565 Z" id="Path" fill="#41479B"></path>
                    <rect id="Rectangle" fill="#F5F5F5" x="11.375" y="2.24372385" width="10.3125" height="20.3535565"></rect>
                    <path d="M31.4625,22.6035565 L21.6875,22.6035565 L21.6875,2.24372385 L31.4625,2.24372385 C31.7625,2.24372385 32,2.48849372 32,2.7834728 L32,22.0575314 C32,22.3587866 31.75625,22.6035565 31.4625,22.6035565 Z" id="Path" fill="#FF4B55"></path>
                    <path d="M1.23125,29.9905858 L1.23125,29.9905858 C0.55,29.9905858 0,29.4382845 0,28.7541841 L0,1.2332636 C0,0.555439331 0.54375,0.00941422594 1.21875,0.00941422594 L1.23125,0.00941422594 C1.9125,0.00941422594 2.4625,0.561715481 2.4625,1.2458159 L2.4625,28.7604603 C2.4625,29.4382845 1.90625,29.9905858 1.23125,29.9905858 Z" id="Path" fill="#2E3033"></path>
                </g>
            </g>
        </g>
    </g>
</svg>