<?xml version="1.0" encoding="UTF-8"?>
<svg width="22px" height="27px" viewBox="0 0 22 27" version="1.1" xmlns="http://www.w3.org/2000/svg" xmlns:xlink="http://www.w3.org/1999/xlink">
    <!-- Generator: sketchtool 54.1 (76490) - https://sketchapp.com -->
    <title>8A28FDFE-4CC6-4406-9E2D-4B3A39DC3171</title>
    <desc>Created with sketchtool.</desc>
    <defs>
        <polygon id="path-1" points="0 0.7222 21.8478 0.7222 21.8478 27 0 27"></polygon>
    </defs>
    <g id="Landing-page---Visite-guidée" stroke="none" stroke-width="1" fill="none" fill-rule="evenodd">
        <g id="Landing-Page---Desktop" transform="translate(-406.000000, -666.000000)">
            <g id="Group-4" transform="translate(406.000000, 665.000000)">
                <g id="icon_location">
                    <g id="Group-3" transform="translate(0.000000, 0.277200)">
                        <mask id="mask-2" fill="white">
                            <use xlink:href="#path-1"></use>
                        </mask>
                        <g id="Clip-2"></g>
                        <path d="M14.6758,21.9082 L11.3018,26.8002 C11.2138,26.9282 11.0798,27.0002 10.9238,27.0002 C10.7678,27.0002 10.6338,26.9282 10.5458,26.8002 L7.1738,21.9082 C2.9878,20.3762 -0.0002,16.3622 -0.0002,11.6462 C-0.0002,5.6142 4.8918,0.7222 10.9238,0.7222 C16.9558,0.7222 21.8478,5.6142 21.8478,11.6462 C21.8478,16.3622 18.8598,20.3762 14.6758,21.9082" id="Fill-1" fill="#EF5661" mask="url(#mask-2)"></path>
                    </g>
                    <path d="M10.9238,6.5898 C14.2178,6.5898 16.8898,9.2618 16.8898,12.5558 C16.8898,15.8498 14.2178,18.5218 10.9238,18.5218 C7.6298,18.5218 4.9598,15.8498 4.9598,12.5558 C4.9598,9.2618 7.6298,6.5898 10.9238,6.5898" id="Fill-4" fill="#E41F4C"></path>
                    <path d="M10.9238,17.8886 C14.2098,17.8886 16.8898,15.2086 16.8898,11.9246 C16.8898,8.6366 14.2098,5.9566 10.9238,5.9566 C7.6378,5.9566 4.9598,8.6366 4.9598,11.9246 C4.9598,15.2086 7.6378,17.8886 10.9238,17.8886" id="Fill-6" fill="#FEFEFE"></path>
                    <path d="M7.8888,11.5174 L8.5828,11.5174 C8.8068,11.5174 8.9888,11.6994 8.9888,11.9234 C8.9888,12.1474 8.8068,12.3294 8.5828,12.3294 L7.8888,12.3294 C7.9788,13.0134 8.2948,13.6254 8.7568,14.0874 L8.7608,14.0894 C9.2228,14.5534 9.8348,14.8694 10.5168,14.9594 L10.5168,14.2634 C10.5168,14.0414 10.6988,13.8574 10.9248,13.8574 C11.1468,13.8574 11.3308,14.0414 11.3308,14.2634 L11.3308,14.9594 C12.0148,14.8694 12.6268,14.5534 13.0888,14.0894 L13.0908,14.0874 C13.5528,13.6254 13.8688,13.0134 13.9588,12.3294 L13.2648,12.3294 C13.0408,12.3294 12.8588,12.1474 12.8588,11.9234 C12.8588,11.6994 13.0408,11.5174 13.2648,11.5174 L13.9588,11.5174 C13.8688,10.8334 13.5528,10.2214 13.0908,9.7594 L13.0888,9.7574 C12.6268,9.2954 12.0148,8.9774 11.3308,8.8894 L11.3308,9.5814 C11.3308,9.8074 11.1468,9.9874 10.9248,9.9874 C10.6988,9.9874 10.5168,9.8074 10.5168,9.5814 L10.5168,8.8894 C9.8348,8.9774 9.2228,9.2954 8.7608,9.7574 L8.7568,9.7594 C8.2948,10.2214 7.9788,10.8334 7.8888,11.5174 L7.8888,11.5174 Z M6.3288,12.3294 C6.1048,12.3294 5.9228,12.1474 5.9228,11.9234 C5.9228,11.6994 6.1048,11.5174 6.3288,11.5174 L7.0708,11.5174 C7.1648,10.6114 7.5728,9.7974 8.1828,9.1854 L8.1848,9.1854 L8.1868,9.1834 L8.1948,9.1754 C8.8048,8.5694 9.6168,8.1634 10.5168,8.0694 L10.5168,7.3274 C10.5168,7.1034 10.6988,6.9214 10.9248,6.9214 C11.1468,6.9214 11.3308,7.1034 11.3308,7.3274 L11.3308,8.0694 C12.2348,8.1654 13.0508,8.5734 13.6608,9.1834 L13.6628,9.1854 L13.6628,9.1854 L13.6728,9.1954 C14.2788,9.8054 14.6828,10.6154 14.7768,11.5174 L15.5188,11.5174 C15.7428,11.5174 15.9268,11.6994 15.9268,11.9234 C15.9268,12.1474 15.7428,12.3294 15.5188,12.3294 L14.7768,12.3294 C14.6808,13.2354 14.2748,14.0514 13.6628,14.6614 L13.6628,14.6614 L13.6608,14.6634 L13.6528,14.6714 C13.0428,15.2774 12.2308,15.6834 11.3308,15.7774 L11.3308,16.5194 C11.3308,16.7414 11.1468,16.9254 10.9248,16.9254 C10.6988,16.9254 10.5168,16.7414 10.5168,16.5194 L10.5168,15.7774 C9.6108,15.6814 8.7988,15.2734 8.1868,14.6634 L8.1848,14.6614 L8.1828,14.6614 L8.1768,14.6514 C7.5688,14.0414 7.1648,13.2314 7.0708,12.3294 L6.3288,12.3294 Z" id="Fill-8" fill="#79796C"></path>
                </g>
            </g>
        </g>
    </g>
</svg>